<?xml version="1.0" encoding="UTF-8" standalone="no"?>
<!-- Created with Inkscape (http://www.inkscape.org/) -->

<svg
   xmlns:dc="http://purl.org/dc/elements/1.1/"
   xmlns:cc="http://creativecommons.org/ns#"
   xmlns:rdf="http://www.w3.org/1999/02/22-rdf-syntax-ns#"
   xmlns:svg="http://www.w3.org/2000/svg"
   xmlns="http://www.w3.org/2000/svg"
   xmlns:sodipodi="http://sodipodi.sourceforge.net/DTD/sodipodi-0.dtd"
   xmlns:inkscape="http://www.inkscape.org/namespaces/inkscape"
   width="121.36979mm"
   height="46.789982mm"
   viewBox="0 0 430.05043 165.79127"
   id="svg42444"
   version="1.1"
   inkscape:version="0.91 r13725"
   sodipodi:docname="kaschube_pi_density.svg">
  <defs
     id="defs42446">
    <clipPath
       id="clipPath44618"
       clipPathUnits="userSpaceOnUse">
      <path
         inkscape:connector-curvature="0"
         id="path44620"
         d="m 330.541,517.136 49.293,0 0,34.491 -49.293,0 0,-34.491 z" />
    </clipPath>
    <clipPath
       id="clipPath44644"
       clipPathUnits="userSpaceOnUse">
      <path
         inkscape:connector-curvature="0"
         id="path44646"
         d="m 330.541,517.136 49.293,0 0,34.491 -49.293,0 0,-34.491 z" />
    </clipPath>
    <clipPath
       id="clipPath44670"
       clipPathUnits="userSpaceOnUse">
      <path
         inkscape:connector-curvature="0"
         id="path44672"
         d="m 330.541,517.136 49.293,0 0,34.491 -49.293,0 0,-34.491 z" />
    </clipPath>
    <clipPath
       id="clipPath45216"
       clipPathUnits="userSpaceOnUse">
      <path
         inkscape:connector-curvature="0"
         id="path45218"
         d="m 228.484,186.048 106.429,0 0,74.451 -106.429,0 0,-74.451 z" />
    </clipPath>
    <clipPath
       id="clipPath45248"
       clipPathUnits="userSpaceOnUse">
      <path
         inkscape:connector-curvature="0"
         id="path45250"
         d="m 228.484,186.048 106.429,0 0,74.451 -106.429,0 0,-74.451 z" />
    </clipPath>
    <clipPath
       id="clipPath45262"
       clipPathUnits="userSpaceOnUse">
      <path
         inkscape:connector-curvature="0"
         id="path45264"
         d="m 228.484,186.048 106.429,0 0,74.451 -106.429,0 0,-74.451 z" />
    </clipPath>
    <clipPath
       id="clipPath45290"
       clipPathUnits="userSpaceOnUse">
      <path
         inkscape:connector-curvature="0"
         id="path45292"
         d="m 228.484,186.048 106.429,0 0,74.451 -106.429,0 0,-74.451 z" />
    </clipPath>
    <clipPath
       id="clipPath45310"
       clipPathUnits="userSpaceOnUse">
      <path
         inkscape:connector-curvature="0"
         id="path45312"
         d="m 228.484,186.048 106.429,0 0,74.451 -106.429,0 0,-74.451 z" />
    </clipPath>
    <clipPath
       id="clipPath45378"
       clipPathUnits="userSpaceOnUse">
      <path
         inkscape:connector-curvature="0"
         id="path45380"
         d="m 450.203,188.156 106.428,0 0,74.451 -106.428,0 0,-74.451 z" />
    </clipPath>
    <clipPath
       id="clipPath45398"
       clipPathUnits="userSpaceOnUse">
      <path
         inkscape:connector-curvature="0"
         id="path45400"
         d="m 450.203,188.156 106.428,0 0,74.451 -106.428,0 0,-74.451 z" />
    </clipPath>
    <clipPath
       id="clipPath45504"
       clipPathUnits="userSpaceOnUse">
      <path
         inkscape:connector-curvature="0"
         id="path45506"
         d="m 134.988,255.074 78.597,0 0,-29.705 -78.597,0 0,29.705 z" />
    </clipPath>
    <clipPath
       id="clipPath45516"
       clipPathUnits="userSpaceOnUse">
      <path
         inkscape:connector-curvature="0"
         id="path45518"
         d="m 134.988,214.923 78.597,0 0,-29.704 -78.597,0 0,29.704 z" />
    </clipPath>
    <clipPath
       id="clipPath45528"
       clipPathUnits="userSpaceOnUse">
      <path
         inkscape:connector-curvature="0"
         id="path45530"
         d="m 512.904,229.538 42.496,0 0,29.705 -42.496,0 0,-29.705 z" />
    </clipPath>
    <clipPath
       id="clipPath45554"
       clipPathUnits="userSpaceOnUse">
      <path
         inkscape:connector-curvature="0"
         id="path45556"
         d="m 512.904,229.538 42.496,0 0,29.705 -42.496,0 0,-29.705 z" />
    </clipPath>
    <clipPath
       id="clipPath45580"
       clipPathUnits="userSpaceOnUse">
      <path
         inkscape:connector-curvature="0"
         id="path45582"
         d="m 512.904,229.538 42.496,0 0,29.705 -42.496,0 0,-29.705 z" />
    </clipPath>
    <clipPath
       id="clipPath45596"
       clipPathUnits="userSpaceOnUse">
      <path
         inkscape:connector-curvature="0"
         id="path45598"
         d="m 512.904,229.538 42.496,0 0,29.705 -42.496,0 0,-29.705 z" />
    </clipPath>
    <clipPath
       id="clipPath45678"
       clipPathUnits="userSpaceOnUse">
      <path
         inkscape:connector-curvature="0"
         id="path45680"
         d="m 347.184,188.132 106.429,0 0,74.451 -106.429,0 0,-74.451 z" />
    </clipPath>
    <clipPath
       id="clipPath45894"
       clipPathUnits="userSpaceOnUse">
      <path
         inkscape:connector-curvature="0"
         id="path45896"
         d="m 0.12,756 593.851,0 0,-755.88 -593.851,0 0,755.88 z" />
    </clipPath>
  </defs>
  <sodipodi:namedview
     id="base"
     pagecolor="#ffffff"
     bordercolor="#666666"
     borderopacity="1.0"
     inkscape:pageopacity="0.0"
     inkscape:pageshadow="2"
     inkscape:zoom="1.4"
     inkscape:cx="141.52989"
     inkscape:cy="-27.981053"
     inkscape:document-units="px"
     inkscape:current-layer="layer1"
     showgrid="false"
     fit-margin-top="0"
     fit-margin-left="0"
     fit-margin-right="0"
     fit-margin-bottom="0"
     inkscape:window-width="1440"
     inkscape:window-height="851"
     inkscape:window-x="2"
     inkscape:window-y="87"
     inkscape:window-maximized="0" />
  <metadata
     id="metadata42449">
    <rdf:RDF>
      <cc:Work
         rdf:about="">
        <dc:format>image/svg+xml</dc:format>
        <dc:type
           rdf:resource="http://purl.org/dc/dcmitype/StillImage" />
        <dc:title></dc:title>
      </cc:Work>
    </rdf:RDF>
  </metadata>
  <g
     inkscape:label="Layer 1"
     inkscape:groupmode="layer"
     id="layer1"
     transform="translate(128.03591,299.75625)">
    <path
       d="m 126.62201,-164.46951 168.8127,0 m -168.8127,0 0,-2.36332"
       style="fill:none;stroke:#231f20;stroke-width:1.20331824;stroke-linecap:butt;stroke-linejoin:miter;stroke-miterlimit:10;stroke-dasharray:none;stroke-opacity:1"
       id="path43702"
       inkscape:connector-curvature="0" />
    <text
       style="font-variant:normal;font-weight:normal;font-size:11.23096943px;font-family:Helvetica;-inkscape-font-specification:Helvetica;writing-mode:lr-tb;fill:#231f20;fill-opacity:1;fill-rule:nonzero;stroke:none"
       id="text43704"
       x="119.26588"
       y="-151.74161">
      <tspan
         x="119.26588 125.50918 128.63026"
         y="-151.74161"
         sodipodi:role="line"
         id="tspan43706">0.0</tspan>
    </text>
    <path
       d="m 191.54664,-164.46951 0,-2.36332"
       style="fill:none;stroke:#231f20;stroke-width:1.20331824;stroke-linecap:butt;stroke-linejoin:miter;stroke-miterlimit:10;stroke-dasharray:none;stroke-opacity:1"
       id="path43708"
       inkscape:connector-curvature="0" />
    <text
       style="font-variant:normal;font-weight:normal;font-size:11.23096943px;font-family:Helvetica;-inkscape-font-specification:Helvetica;writing-mode:lr-tb;fill:#231f20;fill-opacity:1;fill-rule:nonzero;stroke:none"
       id="text43710"
       x="184.18858"
       y="-151.74161">
      <tspan
         x="184.18858 190.43188 193.55298"
         y="-151.74161"
         sodipodi:role="line"
         id="tspan43712">0.5</tspan>
    </text>
    <path
       d="m 256.46967,-164.46951 0,-2.36332"
       style="fill:none;stroke:#231f20;stroke-width:1.20331824;stroke-linecap:butt;stroke-linejoin:miter;stroke-miterlimit:10;stroke-dasharray:none;stroke-opacity:1"
       id="path43714"
       inkscape:connector-curvature="0" />
    <text
       style="font-variant:normal;font-weight:normal;font-size:11.23096943px;font-family:Helvetica;-inkscape-font-specification:Helvetica;writing-mode:lr-tb;fill:#231f20;fill-opacity:1;fill-rule:nonzero;stroke:none"
       id="text43716"
       x="249.11128"
       y="-151.74161">
      <tspan
         x="249.11128 255.3546 258.47568"
         y="-151.74161"
         sodipodi:role="line"
         id="tspan43718">1.0</tspan>
    </text>
    <path
       d="m 126.62201,-164.46951 0,-118.14981 m 0,118.14981 3.37731,0"
       style="fill:none;stroke:#231f20;stroke-width:1.20331824;stroke-linecap:butt;stroke-linejoin:miter;stroke-miterlimit:10;stroke-dasharray:none;stroke-opacity:1"
       id="path43720"
       inkscape:connector-curvature="0" />
    <text
       transform="scale(1.0000857,0.9999143)"
       style="font-variant:normal;font-weight:normal;font-size:11.23193169px;font-family:Helvetica;-inkscape-font-specification:Helvetica;writing-mode:lr-tb;fill:#231f20;fill-opacity:1;fill-rule:nonzero;stroke:none"
       id="text43722"
       x="117.64816"
       y="-160.57249">
      <tspan
         x="117.64816"
         y="-160.57249"
         id="tspan43724">0</tspan>
    </text>
    <path
       d="m 126.62201,-222.57213 3.37731,0"
       style="fill:none;stroke:#231f20;stroke-width:1.20331824;stroke-linecap:butt;stroke-linejoin:miter;stroke-miterlimit:10;stroke-dasharray:none;stroke-opacity:1"
       id="path43726"
       inkscape:connector-curvature="0" />
    <text
       transform="scale(1.0000857,0.9999143)"
       style="font-variant:normal;font-weight:normal;font-size:11.23193169px;font-family:Helvetica;-inkscape-font-specification:Helvetica;writing-mode:lr-tb;fill:#231f20;fill-opacity:1;fill-rule:nonzero;stroke:none"
       id="text43728"
       x="117.64816"
       y="-218.67867">
      <tspan
         x="117.64816"
         y="-218.67867"
         id="tspan43730">3</tspan>
    </text>
    <path
       d="m 126.62201,-280.67315 3.37731,0"
       style="fill:none;stroke:#231f20;stroke-width:1.20331824;stroke-linecap:butt;stroke-linejoin:miter;stroke-miterlimit:10;stroke-dasharray:none;stroke-opacity:1"
       id="path43732"
       inkscape:connector-curvature="0" />
    <text
       transform="scale(1.0000857,0.9999143)"
       style="font-variant:normal;font-weight:normal;font-size:11.23193169px;font-family:Helvetica;-inkscape-font-specification:Helvetica;writing-mode:lr-tb;fill:#231f20;fill-opacity:1;fill-rule:nonzero;stroke:none"
       id="text43734"
       x="117.64816"
       y="-276.78497">
      <tspan
         x="117.64816"
         y="-276.78497"
         id="tspan43736">6</tspan>
    </text>
    <path
       d="m 248.70265,-224.55681 1.07336,1.05251 -1.07336,1.07175 -1.07015,-1.07175 1.07015,-1.05251 1.07336,1.05251 -1.07336,1.07175 -1.07015,-1.07175 1.07015,-1.05251 m 14.75749,-4.6079 0.95303,0.95303 -0.95303,0.95463 -0.95303,-0.95463 0.95303,-0.95303 0.95303,0.95303 -0.95303,0.95463 -0.95303,-0.95463 0.95303,-0.95303 m -10.04851,0.81505 1.56753,1.56752 -1.56753,1.58998 -1.57073,-1.58998 1.57073,-1.56752 1.56753,1.56752 -1.56753,1.58998 -1.57073,-1.58998 1.57073,-1.56752 m -13.50444,3.19761 1.11027,1.09101 -1.11027,1.11187 -1.11507,-1.11187 1.11507,-1.09101 1.11027,1.09101 -1.11027,1.11187 -1.11507,-1.11187 1.11507,-1.09101 m -18.81027,5.89626 1.80819,1.78733 -1.80819,1.80658 -1.78572,-1.80658 1.78572,-1.78733 1.80819,1.78733 -1.80819,1.80658 -1.78572,-1.80658 1.78572,-1.78733 m 13.60552,-9.07302 1.48891,1.4873 -1.48891,1.48891 -1.4889,-1.48891 1.4889,-1.4873 1.48891,1.4873 -1.48891,1.48891 -1.4889,-1.48891 1.4889,-1.4873 m 10.96303,-3.7351 1.2306,1.21295 -1.2306,1.22899 -1.2322,-1.22899 1.2322,-1.21295 1.2306,1.21295 -1.2306,1.22899 -1.2322,-1.22899 1.2322,-1.21295 m -30.48406,10.44641 1.80498,1.80658 -1.80498,1.80658 -1.80818,-1.80658 1.80818,-1.80658 1.80498,1.80658 -1.80498,1.80658 -1.80818,-1.80658 1.80818,-1.80658 m -31.28306,-15.19229 1.68785,1.6686 -1.68785,1.68785 -1.68625,-1.68785 1.68625,-1.6686 1.68785,1.6686 -1.68785,1.68785 -1.68625,-1.68785 1.68625,-1.6686 m 29.09784,-0.0787 2.36171,2.36331 -2.36171,2.36332 -2.36493,-2.36332 2.36493,-2.36331 2.36171,2.36331 -2.36171,2.36332 -2.36493,-2.36332 2.36493,-2.36331 m -11.04486,14.43661 0.59685,0.57438 -0.59685,0.59684 -0.59364,-0.59684 0.59364,-0.57438 0.59685,0.57438 -0.59685,0.59684 -0.59364,-0.59684 0.59364,-0.57438 m 25.26487,0.6546 1.09101,1.09101 -1.09101,1.07336 -1.07336,-1.07336 1.07336,-1.09101 1.09101,1.09101 -1.09101,1.07336 -1.07336,-1.07336 1.07336,-1.09101 m -1.09261,0.0593 1.68785,1.68785 -1.68785,1.70711 -1.68946,-1.70711 1.68946,-1.68785 1.68785,1.68785 -1.68785,1.70711 -1.68946,-1.70711 1.68946,-1.68785 m -2.87995,0.0192 0.87281,0.87441 -0.87281,0.89367 -0.89366,-0.89367 0.89366,-0.87441 0.87281,0.87441 -0.87281,0.89367 -0.89366,-0.89367 0.89366,-0.87441 m 2.04404,-4.04956 1.51137,1.50815 -1.51137,1.50977 -1.50816,-1.50977 1.50816,-1.50815 1.51137,1.50815 -1.51137,1.50977 -1.50816,-1.50977 1.50816,-1.50815"
       style="fill:none;stroke:#27833a;stroke-width:0.79418999;stroke-linecap:butt;stroke-linejoin:miter;stroke-miterlimit:10;stroke-dasharray:none;stroke-opacity:1"
       id="path43738"
       inkscape:connector-curvature="0" />
    <path
       d="m 224.87374,-230.37605 1.0894,1.07336 -1.0894,1.09101 -1.07336,-1.09101 1.07336,-1.07336 1.0894,1.07336 -1.0894,1.09101 -1.07336,-1.09101 1.07336,-1.07336 m -10.31003,-3.59391 1.62849,1.62849 -1.62849,1.62849 -1.60763,-1.62849 1.60763,-1.62849 1.62849,1.62849 -1.62849,1.62849 -1.60763,-1.62849 1.60763,-1.62849 m -23.31389,10.4448 0.51342,0.51662 -0.51342,0.51663 -0.49898,-0.51663 0.49898,-0.51662 0.51342,0.51662 -0.51342,0.51663 -0.49898,-0.51663 0.49898,-0.51662 m 23.51284,-10.58439 0.4364,0.45726 -0.4364,0.43801 -0.43801,-0.43801 0.43801,-0.45726 0.4364,0.45726 -0.4364,0.43801 -0.43801,-0.43801 0.43801,-0.45726 m -3.89234,8.04298 1.8467,1.84669 -1.8467,1.86755 -1.86594,-1.86755 1.86594,-1.84669 1.8467,1.84669 -1.8467,1.86755 -1.86594,-1.86755 1.86594,-1.84669 m 18.09149,-11.55667 1.72797,1.70872 -1.72797,1.72636 -1.70711,-1.72636 1.70711,-1.70872 1.72797,1.70872 -1.72797,1.72636 -1.70711,-1.72636 1.70711,-1.70872 m -32.03393,19.43921 0.23906,0.23906 -0.23906,0.25831 -0.25832,-0.25831 0.25832,-0.23906 0.23906,0.23906 -0.23906,0.25831 -0.25832,-0.25831 0.25832,-0.23906 m 18.07223,-3.63402 0.57599,0.57599 -0.57599,0.55673 -0.55513,-0.55673 0.55513,-0.57599 0.57599,0.57599 -0.57599,0.55673 -0.55513,-0.55673 0.55513,-0.57599 m -31.67615,5.60104 0.55513,0.55513 -0.55513,0.53588 -0.53587,-0.53588 0.53587,-0.55513 0.55513,0.55513 -0.55513,0.53588 -0.53587,-0.53588 0.53587,-0.55513 m 39.62126,-4.32873 1.53062,1.52901 -1.53062,1.50976 -1.52902,-1.50976 1.52902,-1.52901 1.53062,1.52901 -1.53062,1.50976 -1.52902,-1.50976 1.52902,-1.52901 m -18.07384,-2.30396 0.69472,0.69472 -0.69472,0.69471 -0.69471,-0.69471 0.69471,-0.69472 0.69472,0.69472 -0.69472,0.69471 -0.69471,-0.69471 0.69471,-0.69472 m 32.711,-6.75142 0.87281,0.89367 -0.87281,0.87441 -0.8728,-0.87441 0.8728,-0.89367 0.87281,0.89367 -0.87281,0.87441 -0.8728,-0.87441 0.8728,-0.89367 m -21.46719,5.77914 0.69471,0.69472 -0.69471,0.69471 -0.69632,-0.69471 0.69632,-0.69472 0.69471,0.69472 -0.69471,0.69471 -0.69632,-0.69471 0.69632,-0.69472 m -11.79894,-8.24193 1.03325,1.03325 -1.03325,1.05251 -1.0525,-1.05251 1.0525,-1.03325 1.03325,1.03325 -1.03325,1.05251 -1.0525,-1.05251 1.0525,-1.03325 m 37.29645,-5.877 2.5045,2.48204 -2.5045,2.5029 -2.48205,-2.5029 2.48205,-2.48204 2.5045,2.48204 -2.5045,2.5029 -2.48205,-2.5029 2.48205,-2.48204"
       style="fill:none;stroke:#27833a;stroke-width:0.79418999;stroke-linecap:butt;stroke-linejoin:miter;stroke-miterlimit:10;stroke-dasharray:none;stroke-opacity:1"
       id="path43740"
       inkscape:connector-curvature="0" />
    <path
       d="m 229.49769,-224.31935 2.12586,2.12586 -2.12586,2.1034 -2.1034,-2.1034 2.1034,-2.12586 2.12586,2.12586 -2.12586,2.1034 -2.1034,-2.1034 2.1034,-2.12586 m 8.44248,-6.75142 2.52215,2.52216 -2.52215,2.52215 -2.52215,-2.52215 2.52215,-2.52216 2.52215,2.52216 -2.52215,2.52215 -2.52215,-2.52215 2.52215,-2.52216 m -10.36939,-0.47651 1.53062,1.52901 -1.53062,1.52902 -1.52902,-1.52902 1.52902,-1.52901 1.53062,1.52901 -1.53062,1.52902 -1.52902,-1.52902 1.52902,-1.52901 m -21.40944,18.12999 0.45886,0.45726 -0.45886,0.45566 -0.45566,-0.45566 0.45566,-0.45726 0.45886,0.45726 -0.45886,0.45566 -0.45566,-0.45566 0.45566,-0.45726 m 21.76722,-9.76934 1.21295,1.21134 -1.21295,1.21134 -1.20973,-1.21134 1.20973,-1.21134 1.21295,1.21134 -1.21295,1.21134 -1.20973,-1.21134 1.20973,-1.21134 m 5.02666,-4.64641 1.34932,1.33007 -1.34932,1.35092 -1.35092,-1.35092 1.35092,-1.33007 1.34932,1.33007 -1.34932,1.35092 -1.35092,-1.35092 1.35092,-1.33007 m -8.67993,1.74722 2.0665,2.04403 -2.0665,2.04565 -2.04564,-2.04565 2.04564,-2.04403 2.0665,2.04403 -2.0665,2.04565 -2.04564,-2.04565 2.04564,-2.04403 m 8.32215,-15.0126 1.46965,1.46965 -1.46965,1.46966 -1.46966,-1.46966 1.46966,-1.46965 1.46965,1.46965 -1.46965,1.46966 -1.46966,-1.46966 1.46966,-1.46965 m 29.64976,15.84529 0.91612,0.91453 -0.91612,0.91291 -0.91132,-0.91291 0.91132,-0.91453 0.91612,0.91453 -0.91612,0.91291 -0.91132,-0.91291 0.91132,-0.91453 m -58.11064,21.34687 0.2182,0.2182 -0.2182,0.2182 -0.21821,-0.2182 0.21821,-0.2182 0.2182,0.2182 -0.2182,0.2182 -0.21821,-0.2182 0.21821,-0.2182 m 8.26118,-21.76241 2.20608,2.20287 -2.20608,2.20448 -2.22213,-2.20448 2.22213,-2.20287 2.20608,2.20287 -2.20608,2.20448 -2.22213,-2.20448 2.22213,-2.20287 m 10.10947,0.11719 1.96863,1.96702 -1.96863,1.96702 -1.98307,-1.96702 1.98307,-1.96702 1.96863,1.96702 -1.96863,1.96702 -1.98307,-1.96702 1.98307,-1.96702 m 12.63164,10.20734 1.23219,1.2322 -1.23219,1.23059 -1.2322,-1.23059 1.2322,-1.2322 1.23219,1.2322 -1.23219,1.23059 -1.2322,-1.23059 1.2322,-1.2322 m -0.93378,-6.88939 1.19209,1.19048 -1.19209,1.21134 -1.20974,-1.21134 1.20974,-1.19048 1.19209,1.19048 -1.19209,1.21134 -1.20974,-1.21134 1.20974,-1.19048 m -44.52598,1.52741 0.13958,0.16044 -0.13958,0.13798 -0.16044,-0.13798 0.16044,-0.16044 0.13958,0.16044 -0.13958,0.13798 -0.16044,-0.13798 0.16044,-0.16044"
       style="fill:none;stroke:#27833a;stroke-width:0.79418999;stroke-linecap:butt;stroke-linejoin:miter;stroke-miterlimit:10;stroke-dasharray:none;stroke-opacity:1"
       id="path43742"
       inkscape:connector-curvature="0" />
    <path
       d="m 244.19582,-225.03332 0.93378,0.93217 -0.93378,0.93378 -0.93538,-0.93378 0.93538,-0.93217 0.93378,0.93217 -0.93378,0.93378 -0.93538,-0.93378 0.93538,-0.93217 m -24.1899,2.95856 1.21134,1.20973 -1.21134,1.2322 -1.2306,-1.2322 1.2306,-1.20973 1.21134,1.20973 -1.21134,1.2322 -1.2306,-1.2322 1.2306,-1.20973 m -0.77494,-8.7762 1.33007,1.32846 -1.33007,1.35093 -1.33007,-1.35093 1.33007,-1.32846 1.33007,1.32846 -1.33007,1.35093 -1.33007,-1.35093 1.33007,-1.32846 m 18.37066,7.64348 1.52901,1.54987 -1.52901,1.52902 -1.54827,-1.52902 1.54827,-1.54987 1.52901,1.54987 -1.52901,1.52902 -1.54827,-1.52902 1.54827,-1.54987 m -18.33216,-5.0042 1.19209,1.17283 -1.19209,1.19048 -1.16962,-1.19048 1.16962,-1.17283 1.19209,1.17283 -1.19209,1.19048 -1.16962,-1.19048 1.16962,-1.17283 m -17.65508,-6.94877 1.54987,1.54988 -1.54987,1.54666 -1.54827,-1.54666 1.54827,-1.54988 1.54987,1.54988 -1.54987,1.54666 -1.54827,-1.54666 1.54827,-1.54988 m 9.45487,4.82451 1.38943,1.38943 -1.38943,1.37018 -1.37018,-1.37018 1.37018,-1.38943 1.38943,1.38943 -1.38943,1.37018 -1.37018,-1.37018 1.37018,-1.38943 m 20.87196,-1.01239 0.67546,0.67546 -0.67546,0.69472 -0.69472,-0.69472 0.69472,-0.67546 0.67546,0.67546 -0.67546,0.69472 -0.69472,-0.69472 0.69472,-0.67546 m -16.463,8.73609 1.15037,1.17283 -1.15037,1.15037 -1.17123,-1.15037 1.17123,-1.17283 1.15037,1.17283 -1.15037,1.15037 -1.17123,-1.15037 1.17123,-1.17283 m -7.50871,-12.49045 0.83431,0.83591 -0.83431,0.8327 -0.83269,-0.8327 0.83269,-0.83591 0.83431,0.83591 -0.83431,0.8327 -0.83269,-0.8327 0.83269,-0.83591 m 12.51291,16.8609 1.96542,1.98467 -1.96542,1.96542 -1.98628,-1.96542 1.98628,-1.98467 1.96542,1.98467 -1.96542,1.96542 -1.98628,-1.96542 1.98628,-1.98467 m 24.7675,-14.13819 1.84508,1.86595 -1.84508,1.86594 -1.86916,-1.86594 1.86916,-1.86595 1.84508,1.86595 -1.84508,1.86594 -1.86916,-1.86594 1.86916,-1.86595 m -6.51717,5.02185 1.51136,1.50976 -1.51136,1.50977 -1.50816,-1.50977 1.50816,-1.50976 1.51136,1.50976 -1.51136,1.50977 -1.50816,-1.50977 1.50816,-1.50976 m -3.63242,0.93377 1.4873,1.50816 -1.4873,1.49051 -1.50976,-1.49051 1.50976,-1.50816 1.4873,1.50816 -1.4873,1.49051 -1.50976,-1.49051 1.50976,-1.50816 m -11.57913,3.27624 2.32321,2.32481 -2.32321,2.34246 -2.34246,-2.34246 2.34246,-2.32481 2.32321,2.32481 -2.32321,2.34246 -2.34246,-2.34246 2.34246,-2.32481"
       style="fill:none;stroke:#27833a;stroke-width:0.79418999;stroke-linecap:butt;stroke-linejoin:miter;stroke-miterlimit:10;stroke-dasharray:none;stroke-opacity:1"
       id="path43744"
       inkscape:connector-curvature="0" />
    <path
       d="m 230.59191,-212.44501 0.95302,0.97389 -0.95302,0.95303 -0.97228,-0.95303 0.97228,-0.97389 0.95302,0.97389 -0.95302,0.95303 -0.97228,-0.95303 0.97228,-0.97389 m -13.90394,-14.01785 2.2847,2.30395 -2.2847,2.28149 -2.30396,-2.28149 2.30396,-2.30395 2.2847,2.30395 -2.2847,2.28149 -2.30396,-2.28149 2.30396,-2.30395 m 20.97303,4.68492 2.12426,2.12426 -2.12426,2.12586 -2.12426,-2.12586 2.12426,-2.12426 2.12426,2.12426 -2.12426,2.12586 -2.12426,-2.12586 2.12426,-2.12426 m 2.93931,-13.44187 1.42954,1.42794 -1.42954,1.4504 -1.4504,-1.4504 1.4504,-1.42794 1.42954,1.42794 -1.42954,1.4504 -1.4504,-1.4504 1.4504,-1.42794 m 0.89366,9.29283 1.07176,1.07175 -1.07176,1.0525 -1.0525,-1.0525 1.0525,-1.07175 1.07176,1.07175 -1.07176,1.0525 -1.0525,-1.0525 1.0525,-1.07175 m -38.70674,-7.94351 1.34933,1.37018 -1.34933,1.35093 -1.35092,-1.35093 1.35092,-1.37018 1.34933,1.37018 -1.34933,1.35093 -1.35092,-1.35093 1.35092,-1.37018 m -0.49737,2.91845 1.52902,1.53062 -1.52902,1.52902 -1.52901,-1.52902 1.52901,-1.53062 1.52902,1.53062 -1.52902,1.52902 -1.52901,-1.52902 1.52901,-1.53062 m 1.92692,10.26671 1.39103,1.38943 -1.39103,1.41029 -1.40869,-1.41029 1.40869,-1.38943 1.39103,1.38943 -1.39103,1.41029 -1.40869,-1.41029 1.40869,-1.38943 m -2.85909,-0.91452 1.72636,1.72796 -1.72636,1.72797 -1.72957,-1.72797 1.72957,-1.72796 1.72636,1.72796 -1.72636,1.72797 -1.72957,-1.72797 1.72957,-1.72796 m 13.42422,-11.03844 0.3995,0.37543 -0.3995,0.3979 -0.37544,-0.3979 0.37544,-0.37543 0.3995,0.37543 -0.3995,0.3979 -0.37544,-0.3979 0.37544,-0.37543 m 5.10528,3.85222 0.8712,0.85356 -0.8712,0.8728 -0.85516,-0.8728 0.85516,-0.85356 0.8712,0.85356 -0.8712,0.8728 -0.85516,-0.8728 0.85516,-0.85356 m -9.47573,-2.6826 1.51137,1.50977 -1.51137,1.50976 -1.50816,-1.50976 1.50816,-1.50977 1.51137,1.50977 -1.51137,1.50976 -1.50816,-1.50976 1.50816,-1.50977 m 32.95006,4.74589 1.24985,1.25145 -1.24985,1.25145 -1.24985,-1.25145 1.24985,-1.25145 1.24985,1.25145 -1.24985,1.25145 -1.24985,-1.25145 1.24985,-1.25145 m -12.19362,7.32741 1.13111,1.15358 -1.13111,1.13112 -1.13433,-1.13112 1.13433,-1.15358 1.13111,1.15358 -1.13111,1.13112 -1.13433,-1.13112 1.13433,-1.15358 m -36.34663,-4.04957 0.93377,0.93217 -0.93377,0.91292 -0.93217,-0.91292 0.93217,-0.93217 0.93377,0.93217 -0.93377,0.91292 -0.93217,-0.91292 0.93217,-0.93217"
       style="fill:none;stroke:#27833a;stroke-width:0.79418999;stroke-linecap:butt;stroke-linejoin:miter;stroke-miterlimit:10;stroke-dasharray:none;stroke-opacity:1"
       id="path43746"
       inkscape:connector-curvature="0" />
    <path
       d="m 228.56391,-228.86629 1.41029,1.40869 -1.41029,1.41028 -1.40868,-1.41028 1.40868,-1.40869 1.41029,1.40869 -1.41029,1.41028 -1.40868,-1.41028 1.40868,-1.40869 m 13.46594,4.05117 2.02799,2.02479 -2.02799,2.00553 -2.00553,-2.00553 2.00553,-2.02479 2.02799,2.02479 -2.02799,2.00553 -2.00553,-2.00553 2.00553,-2.02479 m -2.56066,-2.08414 1.86434,1.88519 -1.86434,1.86595 -1.86755,-1.86595 1.86755,-1.88519 1.86434,1.88519 -1.86434,1.86595 -1.86755,-1.86595 1.86755,-1.88519 m -23.73425,-3.35806 1.46965,1.47125 -1.46965,1.48891 -1.4873,-1.48891 1.4873,-1.47125 1.46965,1.47125 -1.46965,1.48891 -1.4873,-1.48891 1.4873,-1.47125 m -16.18543,0.8359 1.4889,1.46805 -1.4889,1.49051 -1.48731,-1.49051 1.48731,-1.46805 1.4889,1.46805 -1.4889,1.49051 -1.48731,-1.49051 1.48731,-1.46805 m 39.93893,9.35058 1.07336,1.07336 -1.07336,1.07176 -1.07336,-1.07176 1.07336,-1.07336 1.07336,1.07336 -1.07336,1.07176 -1.07336,-1.07176 1.07336,-1.07336 m -4.15225,-10.44319 1.33167,1.33007 -1.33167,1.33006 -1.34932,-1.33006 1.34932,-1.33007 1.33167,1.33007 -1.33167,1.33006 -1.34932,-1.33006 1.34932,-1.33007"
       style="fill:none;stroke:#27833a;stroke-width:0.79418999;stroke-linecap:butt;stroke-linejoin:miter;stroke-miterlimit:10;stroke-dasharray:none;stroke-opacity:1"
       id="path43748"
       inkscape:connector-curvature="0" />
    <path
       d="m 172.83905,-227.6357 4.78439,4.786 -4.78439,4.80525 -4.80685,-4.80525 4.80685,-4.786 4.78439,4.786 -4.78439,4.80525 -4.80685,-4.80525 4.80685,-4.786 m 2.81897,-4.3881 5.97648,5.99734 -5.97648,5.97648 -5.99894,-5.97648 5.99894,-5.99734 5.97648,5.99734 -5.97648,5.97648 -5.99894,-5.97648 5.99894,-5.99734 m 16.18704,6.59258 4.08968,4.11054 -4.08968,4.11053 -4.11214,-4.11053 4.11214,-4.11054 4.08968,4.11054 -4.08968,4.11053 -4.11214,-4.11053 4.11214,-4.11054 m -8.9575,-2.83822 4.92398,4.92397 -4.92398,4.90473 -4.90633,-4.90473 4.90633,-4.92397 4.92398,4.92397 -4.92398,4.90473 -4.90633,-4.90473 4.90633,-4.92397 m -6.89261,0.35618 5.28337,5.28337 -5.28337,5.26091 -5.28176,-5.26091 5.28176,-5.28337 5.28337,5.28337 -5.28337,5.26091 -5.28176,-5.26091 5.28176,-5.28337 m 3.69339,1.03325 4.3897,4.3881 -4.3897,4.3881 -4.3865,-4.3881 4.3865,-4.3881 4.3897,4.3881 -4.3897,4.3881 -4.3865,-4.3881 4.3865,-4.3881 m -0.73483,-0.29842 4.25012,4.25012 -4.25012,4.24851 -4.25012,-4.24851 4.25012,-4.25012 4.25012,4.25012 -4.25012,4.24851 -4.25012,-4.24851 4.25012,-4.25012 m -3.95009,-5.10368 4.56619,4.5678 -4.56619,4.56619 -4.5678,-4.56619 4.5678,-4.5678 4.56619,4.5678 -4.56619,4.56619 -4.5678,-4.56619 4.5678,-4.5678 m -5.78074,2.10501 5.26251,5.28176 -5.26251,5.26251 -5.28177,-5.26251 5.28177,-5.28176 5.26251,5.28176 -5.26251,5.26251 -5.28177,-5.26251 5.28177,-5.28176 m 1.07175,-2.66014 6.53322,6.53322 -6.53322,6.51235 -6.53321,-6.51235 6.53321,-6.53322 6.53322,6.53322 -6.53322,6.51235 -6.53321,-6.51235 6.53321,-6.53322 m 1.70711,3.65328 4.92719,4.90312 -4.92719,4.92558 -4.90312,-4.92558 4.90312,-4.90312 4.92719,4.90312 -4.92719,4.92558 -4.90312,-4.92558 4.90312,-4.90312 m 13.32795,-6.51236 3.79286,3.79125 -3.79286,3.79446 -3.79286,-3.79446 3.79286,-3.79125 3.79286,3.79125 -3.79286,3.79446 -3.79286,-3.79446 3.79286,-3.79125 m -8.04298,10.28436 2.95696,2.96016 -2.95696,2.97781 -2.98102,-2.97781 2.98102,-2.96016 2.95696,2.96016 -2.95696,2.97781 -2.98102,-2.97781 2.98102,-2.96016 m -1.82743,-8.85482 3.03878,3.05643 -3.03878,3.05803 -3.05964,-3.05803 3.05964,-3.05643 3.03878,3.05643 -3.03878,3.05803 -3.05964,-3.05803 3.05964,-3.05643 m -1.27071,1.42954 4.96409,4.96409 -4.96409,4.96248 -4.96569,-4.96248 4.96569,-4.96409 4.96409,4.96409 -4.96409,4.96248 -4.96569,-4.96248 4.96569,-4.96409"
       style="fill:none;stroke:#7fcbf1;stroke-width:0.79418999;stroke-linecap:butt;stroke-linejoin:miter;stroke-miterlimit:10;stroke-dasharray:none;stroke-opacity:1"
       id="path43750"
       inkscape:connector-curvature="0" />
    <path
       d="m 173.0364,-231.96443 5.87861,5.87861 -5.87861,5.877 -5.87862,-5.877 5.87862,-5.87861 5.87861,5.87861 -5.87861,5.877 -5.87862,-5.877 5.87862,-5.87861 m 7.20707,1.74882 5.92032,5.91712 -5.92032,5.89626 -5.89786,-5.89626 5.89786,-5.91712 5.92032,5.91712 -5.92032,5.89626 -5.89786,-5.89626 5.89786,-5.91712 m -0.57278,1.21134 5.69891,5.69731 -5.69891,5.71977 -5.72298,-5.71977 5.72298,-5.69731 5.69891,5.69731 -5.69891,5.71977 -5.72298,-5.71977 5.72298,-5.69731 m 3.73189,3.05643 3.59391,3.59551 -3.59391,3.61317 -3.59391,-3.61317 3.59391,-3.59551 3.59391,3.59551 -3.59391,3.61317 -3.59391,-3.61317 3.59391,-3.59551 m -18.47013,5.06356 3.85383,3.85222 -3.85383,3.85383 -3.85222,-3.85383 3.85222,-3.85222 3.85383,3.85222 -3.85383,3.85383 -3.85222,-3.85383 3.85222,-3.85222 m 4.29023,-8.41841 3.11739,3.09654 -3.11739,3.119 -3.1174,-3.119 3.1174,-3.09654 3.11739,3.09654 -3.11739,3.119 -3.1174,-3.119 3.1174,-3.09654 m 9.45487,-7.40763 5.16304,5.16304 -5.16304,5.16304 -5.16464,-5.16304 5.16464,-5.16304 5.16304,5.16304 -5.16304,5.16304 -5.16464,-5.16304 5.16464,-5.16304 m -3.43668,8.1216 7.05145,7.04984 -7.05145,7.04984 -7.05144,-7.04984 7.05144,-7.04984 7.05145,7.04984 -7.05145,7.04984 -7.05144,-7.04984 7.05144,-7.04984 m 3.09815,-2.20288 6.17543,6.17383 -6.17543,6.19628 -6.19629,-6.19628 6.19629,-6.17383 6.17543,6.17383 -6.17543,6.19628 -6.19629,-6.19628 6.19629,-6.17383 m -3.61317,-1.49051 2.73876,2.74036 -2.73876,2.74036 -2.74196,-2.74036 2.74196,-2.74036 2.73876,2.74036 -2.73876,2.74036 -2.74196,-2.74036 2.74196,-2.74036 m -3.9533,1.62849 3.21687,3.21687 -3.21687,3.21687 -3.21687,-3.21687 3.21687,-3.21687 3.21687,3.21687 -3.21687,3.21687 -3.21687,-3.21687 3.21687,-3.21687"
       style="fill:none;stroke:#7fcbf1;stroke-width:0.79418999;stroke-linecap:butt;stroke-linejoin:miter;stroke-miterlimit:10;stroke-dasharray:none;stroke-opacity:1"
       id="path43752"
       inkscape:connector-curvature="0" />
    <path
       d="m 187.98963,-221.85656 2.16597,2.16437 -2.16597,2.16437 -2.16437,-2.16437 2.16437,-2.16437 2.16597,2.16437 -2.16597,2.16437 -2.16437,-2.16437 2.16437,-2.16437 m 10.52663,-6.75142 2.68259,2.70025 -2.68259,2.68099 -2.67939,-2.68099 2.67939,-2.70025 2.68259,2.70025 -2.68259,2.68099 -2.67939,-2.68099 2.67939,-2.70025 m -36.12522,9.66987 2.36332,2.36332 -2.36332,2.34245 -2.36171,-2.34245 2.36171,-2.36332 2.36332,2.36332 -2.36332,2.34245 -2.36171,-2.34245 2.36171,-2.36332 m 42.30225,-7.58572 1.19209,1.19209 -1.19209,1.17283 -1.17123,-1.17283 1.17123,-1.19209 1.19209,1.19209 -1.19209,1.17283 -1.17123,-1.17283 1.17123,-1.19209 m -19.32369,-7.14771 5.4021,5.4021 -5.4021,5.40049 -5.42295,-5.40049 5.42295,-5.4021 5.4021,5.4021 -5.4021,5.40049 -5.42295,-5.40049 5.42295,-5.4021 m 2.54141,-1.92691 3.63563,3.63402 -3.63563,3.61477 -3.63402,-3.61477 3.63402,-3.63402 3.63563,3.63402 -3.63563,3.61477 -3.63402,-3.61477 3.63402,-3.63402 m -7.48624,6.59418 2.91845,2.91845 -2.91845,2.89919 -2.9008,-2.89919 2.9008,-2.91845 2.91845,2.91845 -2.91845,2.89919 -2.9008,-2.89919 2.9008,-2.91845 m 11.59838,-2.64088 3.21687,3.21526 -3.21687,3.21688 -3.21687,-3.21688 3.21687,-3.21526 3.21687,3.21526 -3.21687,3.21688 -3.21687,-3.21688 3.21687,-3.21526 m -2.6826,10.18488 2.0649,2.0649 -2.0649,2.06489 -2.06329,-2.06489 2.06329,-2.0649 2.0649,2.0649 -2.0649,2.06489 -2.06329,-2.06489 2.06329,-2.0649"
       style="fill:none;stroke:#f9ab27;stroke-width:0.79418999;stroke-linecap:butt;stroke-linejoin:miter;stroke-miterlimit:10;stroke-dasharray:none;stroke-opacity:1"
       id="path43754"
       inkscape:connector-curvature="0" />
    <path
       d="m 173.59153,-225.55155 99.6203,0"
       style="fill:none;stroke:#27833a;stroke-width:0.79418999;stroke-linecap:butt;stroke-linejoin:miter;stroke-miterlimit:10;stroke-dasharray:none;stroke-opacity:1"
       id="path43756"
       inkscape:connector-curvature="0" />
    <path
       d="m 145.45153,-224.93385 65.8552,0"
       style="fill:none;stroke:#7fcbf1;stroke-width:0.79418999;stroke-linecap:butt;stroke-linejoin:miter;stroke-miterlimit:10;stroke-dasharray:none;stroke-opacity:1"
       id="path43758"
       inkscape:connector-curvature="0" />
    <path
       d="m 152.6586,-225.66867 61.76552,0"
       style="fill:none;stroke:#f9ab27;stroke-width:0.79418999;stroke-linecap:butt;stroke-linejoin:miter;stroke-miterlimit:10;stroke-dasharray:none;stroke-opacity:1"
       id="path43760"
       inkscape:connector-curvature="0" />
    <path
       d="m 225.30854,-280.67315 0,0 m 11.26145,0 0,0"
       style="fill:none;stroke:#7fcbf1;stroke-width:0.39789721;stroke-linecap:round;stroke-linejoin:miter;stroke-miterlimit:10;stroke-dasharray:none;stroke-opacity:1"
       id="path43762"
       inkscape:connector-curvature="0" />
    <text
       style="font-variant:normal;font-weight:normal;font-size:10.39666939px;font-family:Helvetica;-inkscape-font-specification:Helvetica;writing-mode:lr-tb;fill:#7fcbf1;fill-opacity:1;fill-rule:nonzero;stroke:none"
       id="text43764"
       x="250.21191"
       y="-278.35007">
      <tspan
         x="250.21191 256.5643 260.0264 265.80695 271.58749 274.47775 279.67609 285.45663 288.91873 294.69928"
         y="-278.35007"
         sodipodi:role="line"
         id="tspan43766">Tree shrew</tspan>
    </text>
    <path
       d="m 225.30854,-269.05712 0,0 m 11.26145,0 0,0"
       style="fill:none;stroke:#f9ab27;stroke-width:0.39789721;stroke-linecap:round;stroke-linejoin:miter;stroke-miterlimit:10;stroke-dasharray:none;stroke-opacity:1"
       id="path43768"
       inkscape:connector-curvature="0" />
    <text
       style="font-variant:normal;font-weight:normal;font-size:10.39666939px;font-family:Helvetica;-inkscape-font-specification:Helvetica;writing-mode:lr-tb;fill:#f9ab27;fill-opacity:1;fill-rule:nonzero;stroke:none"
       id="text43770"
       x="250.21191"
       y="-266.73373">
      <tspan
         x="250.21191 258.2995 264.07901 266.38602 272.16553 277.94504"
         y="-266.73373"
         sodipodi:role="line"
         id="tspan43772">Galago</tspan>
    </text>
    <path
       d="m 225.30854,-257.43948 0,0 m 11.26145,0 0,0"
       style="fill:none;stroke:#27833a;stroke-width:0.39789721;stroke-linecap:round;stroke-linejoin:miter;stroke-miterlimit:10;stroke-dasharray:none;stroke-opacity:1"
       id="path43774"
       inkscape:connector-curvature="0" />
    <text
       style="font-variant:normal;font-weight:normal;font-size:10.39666939px;font-family:Helvetica;-inkscape-font-specification:Helvetica;writing-mode:lr-tb;fill:#27833a;fill-opacity:1;fill-rule:nonzero;stroke:none"
       id="text43776"
       x="250.21191"
       y="-255.11659">
      <tspan
         x="250.21191 256.5643 262.34485 265.80695 269.26901 275.04956"
         y="-255.11659"
         sodipodi:role="line"
         id="tspan43778">Ferret</tspan>
    </text>
    <path
       d="m -103.61609,-164.42619 168.811108,0 m -168.811108,0 0,-2.36332"
       style="fill:none;stroke:#231f20;stroke-width:1.20331824;stroke-linecap:butt;stroke-linejoin:miter;stroke-miterlimit:10;stroke-dasharray:none;stroke-opacity:1"
       id="path44414"
       inkscape:connector-curvature="0" />
    <text
       style="font-variant:normal;font-weight:normal;font-size:11.23096943px;font-family:Helvetica;-inkscape-font-specification:Helvetica;writing-mode:lr-tb;fill:#231f20;fill-opacity:1;fill-rule:nonzero;stroke:none"
       id="text44416"
       x="-106.55956"
       y="-151.69765">
      <tspan
         x="-106.55956"
         y="-151.69765"
         id="tspan44418">0</tspan>
    </text>
    <path
       d="m -26.876473,-164.42619 0,-2.36332"
       style="fill:none;stroke:#231f20;stroke-width:1.20331824;stroke-linecap:butt;stroke-linejoin:miter;stroke-miterlimit:10;stroke-dasharray:none;stroke-opacity:1"
       id="path44420"
       inkscape:connector-curvature="0" />
    <text
       style="font-variant:normal;font-weight:normal;font-size:11.23096943px;font-family:Helvetica;-inkscape-font-specification:Helvetica;writing-mode:lr-tb;fill:#231f20;fill-opacity:1;fill-rule:nonzero;stroke:none"
       id="text44422"
       x="-29.819466"
       y="-151.69765">
      <tspan
         x="-29.819466"
         y="-151.69765"
         id="tspan44424">2</tspan>
    </text>
    <path
       d="m 49.842282,-164.42619 0,-2.36332"
       style="fill:none;stroke:#231f20;stroke-width:1.20331824;stroke-linecap:butt;stroke-linejoin:miter;stroke-miterlimit:10;stroke-dasharray:none;stroke-opacity:1"
       id="path44426"
       inkscape:connector-curvature="0" />
    <text
       style="font-variant:normal;font-weight:normal;font-size:11.23096943px;font-family:Helvetica;-inkscape-font-specification:Helvetica;writing-mode:lr-tb;fill:#231f20;fill-opacity:1;fill-rule:nonzero;stroke:none"
       id="text44428"
       x="46.900249"
       y="-151.69765">
      <tspan
         x="46.900249"
         y="-151.69765"
         id="tspan44430">4</tspan>
    </text>
    <path
       d="m -103.61609,-164.42619 0,-2.36332"
       style="fill:none;stroke:#231f20;stroke-width:1.20331824;stroke-linecap:butt;stroke-linejoin:miter;stroke-miterlimit:10;stroke-dasharray:none;stroke-opacity:1"
       id="path44432"
       inkscape:connector-curvature="0" />
    <text
       style="font-variant:normal;font-weight:normal;font-size:11.23096943px;font-family:Helvetica;-inkscape-font-specification:Helvetica;writing-mode:lr-tb;fill:#231f20;fill-opacity:1;fill-rule:nonzero;stroke:none"
       id="text44434"
       x="-106.55956"
       y="-151.69765">
      <tspan
         x="-106.55956"
         y="-151.69765"
         id="tspan44436">0</tspan>
    </text>
    <path
       d="m -103.61609,-164.42619 0,-118.1482 m 0,118.1482 3.37571,0"
       style="fill:none;stroke:#231f20;stroke-width:1.20331824;stroke-linecap:butt;stroke-linejoin:miter;stroke-miterlimit:10;stroke-dasharray:none;stroke-opacity:1"
       id="path44438"
       inkscape:connector-curvature="0" />
    <text
       transform="scale(1.0000857,0.99991429)"
       style="font-variant:normal;font-weight:normal;font-size:11.23193169px;font-family:Helvetica;-inkscape-font-specification:Helvetica;writing-mode:lr-tb;fill:#231f20;fill-opacity:1;fill-rule:nonzero;stroke:none"
       id="text44440"
       x="-112.56168"
       y="-160.52771">
      <tspan
         x="-112.56168"
         y="-160.52771"
         id="tspan44442">0</tspan>
    </text>
    <path
       d="m -103.61609,-213.65153 3.37571,0"
       style="fill:none;stroke:#231f20;stroke-width:1.20331824;stroke-linecap:butt;stroke-linejoin:miter;stroke-miterlimit:10;stroke-dasharray:none;stroke-opacity:1"
       id="path44444"
       inkscape:connector-curvature="0" />
    <text
       transform="scale(1.0000857,0.99991429)"
       style="font-variant:normal;font-weight:normal;font-size:11.23193169px;font-family:Helvetica;-inkscape-font-specification:Helvetica;writing-mode:lr-tb;fill:#231f20;fill-opacity:1;fill-rule:nonzero;stroke:none"
       id="text44446"
       x="-112.56168"
       y="-209.75826">
      <tspan
         x="-112.56168"
         y="-209.75826"
         id="tspan44448">5</tspan>
    </text>
    <path
       d="m -103.61609,-262.87687 3.37571,0"
       style="fill:none;stroke:#231f20;stroke-width:1.20331824;stroke-linecap:butt;stroke-linejoin:miter;stroke-miterlimit:10;stroke-dasharray:none;stroke-opacity:1"
       id="path44450"
       inkscape:connector-curvature="0" />
    <text
       transform="scale(1.0000857,0.99991429)"
       style="font-variant:normal;font-weight:normal;font-size:11.23193169px;font-family:Helvetica;-inkscape-font-specification:Helvetica;writing-mode:lr-tb;fill:#231f20;fill-opacity:1;fill-rule:nonzero;stroke:none"
       id="text44452"
       x="-118.69455"
       y="-258.98767">
      <tspan
         x="-118.69455 -112.56192"
         y="-258.98767"
         sodipodi:role="line"
         id="tspan44454">10</tspan>
    </text>
    <path
       d="m -103.61609,-164.42619 3.37571,0"
       style="fill:none;stroke:#231f20;stroke-width:1.20331824;stroke-linecap:butt;stroke-linejoin:miter;stroke-miterlimit:10;stroke-dasharray:none;stroke-opacity:1"
       id="path44456"
       inkscape:connector-curvature="0" />
    <text
       transform="scale(1.0000857,0.99991429)"
       style="font-variant:normal;font-weight:normal;font-size:11.23193169px;font-family:Helvetica;-inkscape-font-specification:Helvetica;writing-mode:lr-tb;fill:#231f20;fill-opacity:1;fill-rule:nonzero;stroke:none"
       id="text44458"
       x="-112.56168"
       y="-160.52771">
      <tspan
         x="-112.56168"
         y="-160.52771"
         id="tspan44460">0</tspan>
    </text>
    <path
       d="m -62.804346,-197.32812 1.07336,1.07175 -1.07336,1.07176 -1.071755,-1.07176 1.071755,-1.07175 1.07336,1.07175 -1.07336,1.07176 -1.071755,-1.07176 1.071755,-1.07175 m -4.407353,1.01239 0.951423,0.95303 -0.951423,0.95142 -0.954633,-0.95142 0.954633,-0.95303 0.951423,0.95303 -0.951423,0.95142 -0.954633,-0.95142 0.954633,-0.95303 m 2.89759,-3.89233 1.570731,1.58838 -1.570731,1.56752 -1.586775,-1.56752 1.586775,-1.58838 1.570731,1.58838 -1.570731,1.56752 -1.586775,-1.56752 1.586775,-1.58838 m 4.668875,-0.23906 1.111866,1.11347 -1.111866,1.11026 -1.094218,-1.11026 1.094218,-1.11347 1.111866,1.11347 -1.111866,1.11026 -1.094218,-1.11026 1.094218,-1.11347 m 8.756947,-2.81898 1.787329,1.80659 -1.787329,1.78732 -1.787328,-1.78732 1.787328,-1.80659 1.787329,1.80659 -1.787329,1.78732 -1.787328,-1.78732 1.787328,-1.80659 m -6.63269,-1.68785 1.488906,1.48891 -1.488906,1.4889 -1.49051,-1.4889 1.49051,-1.48891 1.488906,1.48891 -1.488906,1.4889 -1.49051,-1.4889 1.49051,-1.48891 m -4.250119,2.18362 1.230593,1.2306 -1.230593,1.23219 -1.230594,-1.23219 1.230594,-1.2306 1.230593,1.2306 -1.230593,1.23219 -1.230594,-1.23219 1.230594,-1.2306 m 14.41896,-4.18915 1.806582,1.80658 -1.806582,1.80658 -1.829043,-1.80658 1.829043,-1.80658 1.806582,1.80658 -1.806582,1.80658 -1.829043,-1.80658 1.829043,-1.80658 m 30.723121,-43.58739 1.666997,1.68945 -1.666997,1.68625 -1.687855,-1.68625 1.687855,-1.68945 1.666997,1.68945 -1.666997,1.68625 -1.687855,-1.68625 1.687855,-1.68945 m -29.314436,30.71991 2.384174,2.36331 -2.384174,2.36332 -2.361713,-2.36332 2.361713,-2.36331 2.384174,2.36331 -2.384174,2.36332 -2.361713,-2.36332 2.361713,-2.36331 m 8.461734,2.42268 0.595241,0.59684 -0.595241,0.59525 -0.596846,-0.59525 0.596846,-0.59684 0.595241,0.59684 -0.595241,0.59525 -0.596846,-0.59525 0.596846,-0.59684 m -16.604187,15.34792 1.07336,1.09422 -1.07336,1.07015 -1.091009,-1.07015 1.091009,-1.09422 1.07336,1.09422 -1.07336,1.07015 -1.091009,-1.07015 1.091009,-1.09422 m 0.535878,-1.32846 1.687854,1.68785 -1.687854,1.68625 -1.68625,-1.68625 1.68625,-1.68785 1.687854,1.68785 -1.687854,1.68625 -1.68625,-1.68625 1.68625,-1.68785 m 1.49051,-0.59685 0.893664,0.87441 -0.893664,0.87441 -0.872807,-0.87441 0.872807,-0.87441 0.893664,0.87441 -0.893664,0.87441 -0.872807,-0.87441 0.872807,-0.87441 m -1.071756,-1.42794 1.529017,1.52902 -1.529017,1.50816 -1.509763,-1.50816 1.509763,-1.52902 1.529017,1.52902 -1.529017,1.50816 -1.509763,-1.50816 1.509763,-1.52902"
       style="fill:none;stroke:#27833a;stroke-width:0.79418999;stroke-linecap:butt;stroke-linejoin:miter;stroke-miterlimit:10;stroke-dasharray:none;stroke-opacity:1"
       id="path44462"
       inkscape:connector-curvature="0" />
    <path
       d="m -52.91307,-209.68058 1.092613,1.07336 -1.092613,1.09261 -1.092613,-1.09261 1.092613,-1.07336 1.092613,1.07336 -1.092613,1.09261 -1.092613,-1.09261 1.092613,-1.07336 m 5.937974,-7.78307 1.628491,1.62689 -1.628491,1.6301 -1.62849,-1.6301 1.62849,-1.62689 1.628491,1.62689 -1.628491,1.6301 -1.62849,-1.6301 1.62849,-1.62689 m 20.435552,-10.28596 0.516625,0.49577 -0.516625,0.51662 -0.516625,-0.51662 0.516625,-0.49577 0.516625,0.49577 -0.516625,0.51662 -0.516625,-0.51662 0.516625,-0.49577 m -20.554279,11.15877 0.436403,0.45726 -0.436403,0.43641 -0.438008,-0.43641 0.438008,-0.45726 0.436403,0.45726 -0.436403,0.43641 -0.438008,-0.43641 0.438008,-0.45726 m 2.620025,3.03878 1.848296,1.86595 -1.848296,1.84669 -1.846693,-1.84669 1.846693,-1.86595 1.848296,1.86595 -1.848296,1.84669 -1.846693,-1.84669 1.846693,-1.86595 m -10.46566,-1.19209 1.707108,1.70872 -1.707108,1.72796 -1.707107,-1.72796 1.707107,-1.70872 1.707108,1.70872 -1.707108,1.72796 -1.707107,-1.72796 1.707107,-1.70872 m 22.184374,-0.31607 0.258313,0.25671 -0.258313,0.23906 -0.237454,-0.23906 0.237454,-0.25671 0.258313,0.25671 -0.258313,0.23906 -0.237454,-0.23906 0.237454,-0.25671 m -14.497577,4.88387 0.574384,0.57599 -0.574384,0.55513 -0.556735,-0.55513 0.556735,-0.57599 0.574384,0.57599 -0.574384,0.55513 -0.556735,-0.55513 0.556735,-0.57599 m 31.477199,-15.29016 0.556736,0.55513 -0.556736,0.53748 -0.534273,-0.53748 0.534273,-0.55513 0.556736,0.55513 -0.556736,0.53748 -0.534273,-0.53748 0.534273,-0.55513 m -36.125216,21.68379 1.529016,1.52902 -1.529016,1.52901 -1.508159,-1.52901 1.508159,-1.52902 1.529016,1.52902 -1.529016,1.52901 -1.508159,-1.52901 1.508159,-1.52902 m 11.956169,-10.60364 0.694716,0.69472 -0.694716,0.69632 -0.69632,-0.69632 0.69632,-0.69472 0.694716,0.69472 -0.694716,0.69632 -0.69632,-0.69632 0.69632,-0.69472 m -18.768555,10.04851 0.874411,0.87281 -0.874411,0.87441 -0.893664,-0.87441 0.893664,-0.87281 0.874411,0.87281 -0.874411,0.87441 -0.893664,-0.87441 0.893664,-0.87281 m 10.765687,-3.63563 0.694716,0.69632 -0.694716,0.69472 -0.69632,-0.69472 0.69632,-0.69632 0.694716,0.69632 -0.694716,0.69472 -0.69632,-0.69472 0.69632,-0.69632 m 8.460129,-14.6532 1.031645,1.03164 -1.031645,1.05411 -1.052502,-1.05411 1.052502,-1.03164 1.031645,1.03164 -1.031645,1.05411 -1.052502,-1.05411 1.052502,-1.03164 m -20.814196,14.59384 2.502902,2.5029 -2.502902,2.5013 -2.482044,-2.5013 2.482044,-2.5029 2.502902,2.5029 -2.502902,2.5013 -2.482044,-2.5013 2.482044,-2.5029"
       style="fill:none;stroke:#27833a;stroke-width:0.79418999;stroke-linecap:butt;stroke-linejoin:miter;stroke-miterlimit:10;stroke-dasharray:none;stroke-opacity:1"
       id="path44464"
       inkscape:connector-curvature="0" />
    <path
       d="m -55.19777,-204.43893 2.125862,2.10661 -2.125862,2.12426 -2.105005,-2.12426 2.105005,-2.10661 2.125862,2.10661 -2.125862,2.12426 -2.105005,-2.12426 2.105005,-2.10661 m -3.653274,-0.53427 2.522155,2.52055 -2.522155,2.52215 -2.522155,-2.52215 2.522155,-2.52055 2.522155,2.52055 -2.522155,2.52215 -2.522155,-2.52215 2.522155,-2.52055 m 4.587049,-5.89787 1.529016,1.52742 -1.529016,1.52901 -1.530621,-1.52901 1.530621,-1.52742 1.529016,1.52742 -1.529016,1.52901 -1.530621,-1.52901 1.530621,-1.52742 m 13.286237,5.85776 0.457261,0.47651 -0.457261,0.45566 -0.455656,-0.45566 0.455656,-0.47651 0.457261,0.47651 -0.457261,0.45566 -0.455656,-0.45566 0.455656,-0.47651 m -13.464328,1.92691 1.209736,1.20974 -1.209736,1.21134 -1.212945,-1.21134 1.212945,-1.20974 1.209736,1.20974 -1.209736,1.21134 -1.212945,-1.21134 1.212945,-1.20974 m -2.323207,-1.98788 1.349321,1.33167 -1.349321,1.34932 -1.331672,-1.34932 1.331672,-1.33167 1.349321,1.33167 -1.349321,1.34932 -1.331672,-1.34932 1.331672,-1.33167 m 4.168295,-1.86595 2.04564,2.04564 -2.04564,2.04404 -2.064894,-2.04404 2.064894,-2.04564 2.04564,2.04564 -2.04564,2.04404 -2.064894,-2.04404 2.064894,-2.04564 m -4.011061,-6.29415 1.469653,1.46965 -1.469653,1.48891 -1.469653,-1.48891 1.469653,-1.46965 1.469653,1.46965 -1.469653,1.48891 -1.469653,-1.48891 1.469653,-1.46965 m -10.266711,18.12839 0.912917,0.91291 -0.912917,0.91453 -0.933775,-0.91453 0.933775,-0.91291 0.912917,0.91291 -0.912917,0.91453 -0.933775,-0.91453 0.933775,-0.91291 m 27.525503,-2.87834 0.219806,0.2182 -0.219806,0.19895 -0.198949,-0.19895 0.198949,-0.2182 0.219806,0.2182 -0.219806,0.19895 -0.198949,-0.19895 0.198949,-0.2182 m -6.177034,-15.25005 2.206084,2.20448 -2.206084,2.22373 -2.223732,-2.22373 2.223732,-2.20448 2.206084,2.20448 -2.206084,2.22373 -2.223732,-2.22373 2.223732,-2.20448 m -6.135318,6.59258 1.984673,1.96542 -1.984673,1.96542 -1.967024,-1.96542 1.967024,-1.96542 1.984673,1.96542 -1.984673,1.96542 -1.967024,-1.96542 1.967024,-1.96542 m -6.039053,10.663 1.230593,1.23059 -1.230593,1.2322 -1.230593,-1.2322 1.230593,-1.23059 1.230593,1.23059 -1.230593,1.2322 -1.230593,-1.2322 1.230593,-1.23059 m 0.397897,-4.48758 1.21134,1.21295 -1.21134,1.19048 -1.21134,-1.19048 1.21134,-1.21295 1.21134,1.21295 -1.21134,1.19048 -1.21134,-1.19048 1.21134,-1.21295 m 32.709398,-20.25425 0.13798,0.15884 -0.13798,0.13959 -0.158838,-0.13959 0.158838,-0.15884 0.13798,0.15884 -0.13798,0.13959 -0.158838,-0.13959 0.158838,-0.15884"
       style="fill:none;stroke:#27833a;stroke-width:0.79418999;stroke-linecap:butt;stroke-linejoin:miter;stroke-miterlimit:10;stroke-dasharray:none;stroke-opacity:1"
       id="path44466"
       inkscape:connector-curvature="0" />
    <path
       d="m -61.235219,-200.5466 0.933775,0.93378 -0.933775,0.93377 -0.93217,-0.93377 0.93217,-0.93378 0.933775,0.93378 -0.933775,0.93377 -0.93217,-0.93377 0.93217,-0.93378 m 10.982284,-5.26251 1.212945,1.21295 -1.212945,1.23059 -1.230593,-1.23059 1.230593,-1.21295 1.212945,1.21295 -1.212945,1.23059 -1.230593,-1.23059 1.230593,-1.21295 m 0.436404,-6.7113 1.331672,1.33167 -1.331672,1.34932 -1.349321,-1.34932 1.349321,-1.33167 1.331672,1.33167 -1.331672,1.34932 -1.349321,-1.34932 1.349321,-1.33167 m -8.896533,11.65774 1.529017,1.52902 -1.529017,1.52741 -1.548269,-1.52741 1.548269,-1.52902 1.529017,1.52902 -1.529017,1.52741 -1.548269,-1.52741 1.548269,-1.52902 m 8.858027,-9.71158 1.192087,1.19209 -1.192087,1.17123 -1.17123,-1.17123 1.17123,-1.19209 1.192087,1.19209 -1.192087,1.17123 -1.17123,-1.17123 1.17123,-1.19209 m 12.670138,-16.66034 1.569127,1.54987 -1.569127,1.54827 -1.548269,-1.54827 1.548269,-1.54987 1.569127,1.54987 -1.569127,1.54827 -1.548269,-1.54827 1.548269,-1.54987 m -7.447737,11.73636 1.391035,1.37018 -1.391035,1.37179 -1.370179,-1.37179 1.370179,-1.37018 1.391035,1.37018 -1.391035,1.37179 -1.370179,-1.37179 1.370179,-1.37018 m -11.677,7.60498 0.675462,0.67546 -0.675462,0.69471 -0.694716,-0.69471 0.694716,-0.67546 0.675462,0.67546 -0.675462,0.69471 -0.694716,-0.69471 0.694716,-0.67546 m 8.758552,-0.8327 1.17123,1.17123 -1.17123,1.15198 -1.151977,-1.15198 1.151977,-1.17123 1.17123,1.17123 -1.17123,1.15198 -1.151977,-1.15198 1.151977,-1.17123 m 5.163037,-11.677 0.855158,0.8343 -0.855158,0.8327 -0.832696,-0.8327 0.832696,-0.8343 0.855158,0.8343 -0.855158,0.8327 -0.832696,-0.8327 0.832696,-0.8343 m -8.142453,16.95876 1.967024,1.98468 -1.967024,1.96702 -1.986277,-1.96702 1.986277,-1.98468 1.967024,1.98468 -1.967024,1.96702 -1.986277,-1.96702 1.986277,-1.98468 m -11.081758,1.19049 1.846692,1.84669 -1.846692,1.86594 -1.865946,-1.86594 1.865946,-1.84669 1.846692,1.84669 -1.846692,1.86594 -1.865946,-1.86594 1.865946,-1.84669 m 2.443538,-0.59685 1.488905,1.50976 -1.488905,1.50977 -1.509763,-1.50977 1.509763,-1.50976 1.488905,1.50976 -1.488905,1.50977 -1.509763,-1.50977 1.509763,-1.50976 m 1.488905,-0.57599 1.488906,1.50977 -1.488906,1.4889 -1.509763,-1.4889 1.509763,-1.50977 1.488906,1.50977 -1.488906,1.4889 -1.509763,-1.4889 1.509763,-1.50977 m 5.482318,-3.29388 2.323207,2.3216 -2.323207,2.34246 -2.324811,-2.34246 2.324811,-2.3216 2.323207,2.3216 -2.323207,2.34246 -2.324811,-2.34246 2.324811,-2.3216"
       style="fill:none;stroke:#27833a;stroke-width:0.79418999;stroke-linecap:butt;stroke-linejoin:miter;stroke-miterlimit:10;stroke-dasharray:none;stroke-opacity:1"
       id="path44468"
       inkscape:connector-curvature="0" />
    <path
       d="m -55.693537,-195.38356 0.953028,0.97228 -0.953028,0.95463 -0.953028,-0.95463 0.953028,-0.97228 0.953028,0.97228 -0.953028,0.95463 -0.953028,-0.95463 0.953028,-0.97228 m 7.388373,-15.33027 2.302349,2.2847 -2.302349,2.30395 -2.2847,-2.30395 2.2847,-2.2847 2.302349,2.2847 -2.302349,2.30395 -2.2847,-2.30395 2.2847,-2.2847 m -10.446406,10.06776 2.124258,2.12426 -2.124258,2.12586 -2.125862,-2.12586 2.125862,-2.12426 2.124258,2.12426 -2.124258,2.12586 -2.125862,-2.12586 2.125862,-2.12426 m -1.151977,-7.24718 1.429542,1.44879 -1.429542,1.43115 -1.431146,-1.43115 1.431146,-1.44879 1.429542,1.44879 -1.429542,1.43115 -1.431146,-1.43115 1.431146,-1.44879 m -0.338533,6.39523 1.052502,1.0509 -1.052502,1.07336 -1.07336,-1.07336 1.07336,-1.0509 1.052502,1.0509 -1.052502,1.07336 -1.07336,-1.07336 1.07336,-1.0509 m 22.044789,-23.65082 1.349321,1.35093 -1.349321,1.37018 -1.370178,-1.37018 1.370178,-1.35093 1.349321,1.35093 -1.349321,1.37018 -1.370178,-1.37018 1.370178,-1.35093 m 0.417151,2.26384 1.529016,1.52902 -1.529016,1.54827 -1.529017,-1.54827 1.529017,-1.52902 1.529016,1.52902 -1.529016,1.54827 -1.529017,-1.54827 1.529017,-1.52902 m -1.628491,9.65062 1.410289,1.41029 -1.410289,1.38943 -1.389431,-1.38943 1.389431,-1.41029 1.410289,1.41029 -1.410289,1.38943 -1.389431,-1.38943 1.389431,-1.41029 m 2.462791,-2.79972 1.727965,1.72796 -1.727965,1.74722 -1.747218,-1.74722 1.747218,-1.72796 1.727965,1.72796 -1.727965,1.74722 -1.747218,-1.74722 1.747218,-1.72796 m -10.168841,1.38943 0.397897,0.39789 -0.397897,0.3963 -0.377039,-0.3963 0.377039,-0.39789 0.397897,0.39789 -0.397897,0.3963 -0.377039,-0.3963 0.377039,-0.39789 m -3.077285,2.97941 0.853553,0.85356 -0.853553,0.85355 -0.874412,-0.85355 0.874412,-0.85356 0.853553,0.85356 -0.853553,0.85355 -0.874412,-0.85355 0.874412,-0.85356 m 6.037448,-5.66041 1.488906,1.50977 -1.488906,1.4889 -1.509763,-1.4889 1.509763,-1.50977 1.488906,1.50977 -1.488906,1.4889 -1.509763,-1.4889 1.509763,-1.50977 m -16.782278,17.31495 1.251451,1.25306 -1.251451,1.24984 -1.251451,-1.24984 1.251451,-1.25306 1.251451,1.25306 -1.251451,1.24984 -1.251451,-1.24984 1.251451,-1.25306 m 4.964089,1.72797 1.132723,1.13112 -1.132723,1.13272 -1.132724,-1.13272 1.132724,-1.13112 1.132723,1.13112 -1.132723,1.13272 -1.132724,-1.13272 1.132724,-1.13112 m 25.401245,-25.95157 0.933775,0.93217 -0.933775,0.93378 -0.933775,-0.93378 0.933775,-0.93217 0.933775,0.93217 -0.933775,0.93378 -0.933775,-0.93378 0.933775,-0.93217"
       style="fill:none;stroke:#27833a;stroke-width:0.79418999;stroke-linecap:butt;stroke-linejoin:miter;stroke-miterlimit:10;stroke-dasharray:none;stroke-opacity:1"
       id="path44470"
       inkscape:connector-curvature="0" />
    <path
       d="m -54.740509,-206.74128 1.408684,1.38943 -1.408684,1.41029 -1.410289,-1.41029 1.410289,-1.38943 1.408684,1.38943 -1.408684,1.41029 -1.410289,-1.41029 1.410289,-1.38943 m -5.719773,6.37438 2.024784,2.00553 -2.024784,2.02478 -2.00553,-2.02478 2.00553,-2.00553 2.024784,2.00553 -2.024784,2.02478 -2.00553,-2.02478 2.00553,-2.00553 m 0.993139,-1.6686 1.865945,1.86755 -1.865945,1.86594 -1.86755,-1.86594 1.86755,-1.86755 1.865945,1.86755 -1.865945,1.86594 -1.86755,-1.86594 1.86755,-1.86755 m 11.755616,-13.1258 1.490511,1.49051 -1.490511,1.48891 -1.469652,-1.48891 1.469652,-1.49051 1.490511,1.49051 -1.490511,1.48891 -1.469652,-1.48891 1.469652,-1.49051 m 12.413431,-10.82184 1.469653,1.48891 -1.469653,1.47125 -1.488906,-1.47125 1.488906,-1.48891 1.469653,1.48891 -1.469653,1.47125 -1.488906,-1.47125 1.488906,-1.48891 m -24.169047,27.7405 1.052502,1.0525 -1.052502,1.07175 -1.07336,-1.07175 1.07336,-1.0525 1.052502,1.0525 -1.052502,1.07175 -1.07336,-1.07175 1.07336,-1.0525 m 1.687854,-7.38677 1.330068,1.33007 -1.330068,1.35092 -1.350925,-1.35092 1.350925,-1.33007 1.330068,1.33007 -1.330068,1.35092 -1.350925,-1.35092 1.350925,-1.33007"
       style="fill:none;stroke:#27833a;stroke-width:0.79418999;stroke-linecap:butt;stroke-linejoin:miter;stroke-miterlimit:10;stroke-dasharray:none;stroke-opacity:1"
       id="path44472"
       inkscape:connector-curvature="0" />
    <path
       d="M -103.61609,-164.42619 42.970533,-282.55514"
       style="fill:none;stroke:#231f20;stroke-width:0.79418999;stroke-linecap:butt;stroke-linejoin:miter;stroke-miterlimit:10;stroke-dasharray:3.97095006, 3.97095006;stroke-dashoffset:0;stroke-opacity:1"
       id="path44474"
       inkscape:connector-curvature="0" />
    <path
       d="m 4.2044339,-254.07982 4.787602,4.786 -4.787602,4.80365 -4.80685513,-4.80365 4.80685513,-4.786 4.787602,4.786 -4.787602,4.80365 -4.80685513,-4.80365 4.80685513,-4.786 m -6.197891,-1.41029 5.9780848,5.97649 -5.9780848,5.97808 -5.9957335,-5.97808 5.9957335,-5.97649 5.9780848,5.97649 -5.9780848,5.97808 -5.9957335,-5.97808 5.9957335,-5.97649 m -25.2215499,29.88562 4.091282,4.10893 -4.091282,4.11214 -4.110535,-4.11214 4.110535,-4.10893 4.091282,4.10893 -4.091282,4.11214 -4.110535,-4.11214 4.110535,-4.10893 m 12.135866,-13.1258 4.923978,4.90473 -4.923978,4.92397 -4.927187,-4.92397 4.927187,-4.90473 4.923978,4.90473 -4.923978,4.92397 -4.927187,-4.92397 4.927187,-4.90473 m 12.3733196,-7.62583 5.2817646,5.28177 -5.2817646,5.26251 -5.2641161,-5.26251 5.2641161,-5.28177 5.2817646,5.28177 -5.2817646,5.26251 -5.2641161,-5.26251 5.2641161,-5.28177 m -7.0305872,3.75275 4.3881004,4.3881 -4.3881004,4.38971 -4.3897044,-4.38971 4.3897044,-4.3881 4.3881004,4.3881 -4.3881004,4.38971 -4.3897044,-4.38971 4.3897044,-4.3881 m 1.3284633,-0.69472 4.2517243,4.25012 -4.2517243,4.24852 -4.2485157,-4.24852 4.2485157,-4.25012 4.2517243,4.25012 -4.2517243,4.24852 -4.2485157,-4.24852 4.2485157,-4.25012 m 7.74616037,-13.91838 4.56779593,4.5662 -4.56779593,4.56779 -4.54854277,-4.56779 4.54854277,-4.5662 4.56779593,4.5662 -4.56779593,4.56779 -4.54854277,-4.56779 4.54854277,-4.5662 m 14.00181093,-7.13006 5.283369,5.28177 -5.283369,5.26251 -5.2625119,-5.26251 5.2625119,-5.28177 5.283369,5.28177 -5.283369,5.26251 -5.2625119,-5.26251 5.2625119,-5.28177 m -2.878337,-1.96542 6.533215,6.53161 -6.533215,6.53482 -6.5348205,-6.53482 6.5348205,-6.53161 6.533215,6.53161 -6.533215,6.53482 -6.5348205,-6.53482 6.5348205,-6.53161 m -4.3110885,7.78307 4.9255825,4.90632 -4.9255825,4.92398 -4.9063294,-4.92398 4.9063294,-4.90632 4.9255825,4.90632 -4.9255825,4.92398 -4.9063294,-4.92398 4.9063294,-4.90632 m -24.9038735,11.0609 3.791255,3.79286 -3.791255,3.79125 -3.794463,-3.79125 3.794463,-3.79286 3.791255,3.79286 -3.791255,3.79125 -3.794463,-3.79125 3.794463,-3.79286 m 13.4835816,2.38417 2.9794158,2.97781 -2.9794158,2.97942 -2.9585584,-2.97942 2.9585584,-2.97781 2.9794158,2.97781 -2.9794158,2.97942 -2.9585584,-2.97942 2.9585584,-2.97781 m 3.675736,-14.3965 3.0580326,3.05643 -3.0580326,3.03717 -3.0387796,-3.03717 3.0387796,-3.05643 3.0580326,3.05643 -3.0580326,3.03717 -3.0387796,-3.03717 3.0387796,-3.05643 m 2.7211035,0.93217 4.9624843,4.96409 -4.9624843,4.96409 -4.9656931,-4.96409 4.9656931,-4.96409 4.9624843,4.96409 -4.9624843,4.96409 -4.9656931,-4.96409 4.9656931,-4.96409"
       style="fill:none;stroke:#7fcbf1;stroke-width:0.79418999;stroke-linecap:butt;stroke-linejoin:miter;stroke-miterlimit:10;stroke-dasharray:none;stroke-opacity:1"
       id="path44476"
       inkscape:connector-curvature="0" />
    <path
       d="m 3.7279199,-258.86581 5.8770061,5.89786 -5.8770061,5.87701 -5.8786105,-5.87701 5.8786105,-5.89786 5.8770061,5.89786 -5.8770061,5.87701 -5.8786105,-5.87701 5.8786105,-5.89786 m -14.4382139,14.69492 5.8978635,5.91711 -5.8978635,5.89626 -5.918721,-5.89626 5.918721,-5.91711 5.8978635,5.91711 -5.8978635,5.89626 -5.918721,-5.89626 5.918721,-5.91711 m 1.0123916,-0.89527 5.7197725,5.70052 -5.7197725,5.69731 -5.7005196,-5.69731 5.7005196,-5.70052 5.7197725,5.70052 -5.7197725,5.69731 -5.7005196,-5.69731 5.7005196,-5.70052 m -6.1962866,9.21581 3.614768,3.59231 -3.614768,3.59391 -3.595515,-3.59391 3.595515,-3.59231 3.614768,3.59231 -3.614768,3.59391 -3.595515,-3.59391 3.595515,-3.59231 m 42.340756,-23.15505 3.853828,3.85222 -3.853828,3.85383 -3.850618,-3.85383 3.850618,-3.85222 3.853828,3.85222 -3.853828,3.85383 -3.850618,-3.85383 3.850618,-3.85222 m -13.106541,-5.877 3.117396,3.11739 -3.117396,3.1174 -3.117397,-3.1174 3.117397,-3.11739 3.117396,3.11739 -3.117396,3.1174 -3.117397,-3.1174 3.117397,-3.11739 m -21.2505998,7.58571 5.1437842,5.16304 -5.1437842,5.16143 -5.1646412,-5.16143 5.1646412,-5.16304 5.1437842,5.16304 -5.1437842,5.16143 -5.1646412,-5.16143 5.1646412,-5.16304 m 6.7738793,7.98201 7.0498402,7.04984 -7.0498402,7.06749 -7.0514447,-7.06749 7.0514447,-7.04984 7.0498402,7.04984 -7.0498402,7.06749 -7.0514447,-7.06749 7.0514447,-7.04984 m -6.1385273,1.54988 6.1770335,6.19468 -6.1770335,6.17543 -6.1962862,-6.17543 6.1962862,-6.19468 6.1770335,6.19468 -6.1770335,6.17543 -6.1962862,-6.17543 6.1962862,-6.19468 m 7.22953579,-8.29969 2.74035661,2.74036 -2.74035661,2.73875 -2.74196109,-2.73875 2.74196109,-2.74036 2.74035661,2.74036 -2.74035661,2.73875 -2.74196109,-2.73875 2.74196109,-2.74036 m 9.25431921,-6.29576 3.2184748,3.23612 -3.2184748,3.21687 -3.2168707,-3.21687 3.2168707,-3.23612 3.2184748,3.23612 -3.2184748,3.21687 -3.2168707,-3.21687 3.2168707,-3.23612"
       style="fill:none;stroke:#7fcbf1;stroke-width:0.79418999;stroke-linecap:butt;stroke-linejoin:miter;stroke-miterlimit:10;stroke-dasharray:none;stroke-opacity:1"
       id="path44478"
       inkscape:connector-curvature="0" />
    <path
       d="M -103.61609,-164.42619 42.970533,-282.55514"
       style="fill:none;stroke:#231f20;stroke-width:0.79418999;stroke-linecap:butt;stroke-linejoin:miter;stroke-miterlimit:10;stroke-dasharray:3.97095006, 3.97095006;stroke-dashoffset:0;stroke-opacity:1"
       id="path44480"
       inkscape:connector-curvature="0" />
    <path
       d="m -22.427405,-226.73722 2.164369,2.16437 -2.164369,2.18362 -2.165972,-2.18362 2.165972,-2.16437 2.164369,2.16437 -2.164369,2.18362 -2.165972,-2.18362 2.165972,-2.16437 m -11.896805,2.87834 2.70185,2.70185 -2.70185,2.68099 -2.680993,-2.68099 2.680993,-2.70185 2.70185,2.70185 -2.70185,2.68099 -2.680993,-2.68099 2.680993,-2.70185 m 69.98659,-38.66021 2.363317,2.34407 -2.363317,2.36171 -2.344063,-2.36171 2.344063,-2.34407 2.363317,2.34407 -2.363317,2.36171 -2.344063,-2.36171 2.344063,-2.34407 m -75.467304,46.50424 1.190483,1.17283 -1.190483,1.19049 -1.172834,-1.19049 1.172834,-1.17283 1.190483,1.17283 -1.190483,1.19049 -1.172834,-1.19049 1.172834,-1.17283 m 20.990683,-25.97242 5.422954,5.4021 -5.422954,5.41974 -5.402097,-5.41974 5.402097,-5.4021 5.422954,5.4021 -5.422954,5.41974 -5.402097,-5.41974 5.402097,-5.4021 m -3.515294,1.15198 3.634021,3.61476 -3.634021,3.63242 -3.634021,-3.63242 3.634021,-3.61476 3.634021,3.61476 -3.634021,3.63242 -3.634021,-3.63242 3.634021,-3.61476 m 11.301565,-0.99475 2.9184476,2.92006 -2.9184476,2.92005 -2.900799,-2.92005 2.900799,-2.92006 2.9184476,2.92006 -2.9184476,2.92005 -2.900799,-2.92005 2.900799,-2.92006 m -16.405238,8.72005 3.21687,3.21527 -3.21687,3.21687 -3.216871,-3.21687 3.216871,-3.21527 3.21687,3.21527 -3.21687,3.21687 -3.216871,-3.21687 3.216871,-3.21527 m 3.258585,8.87567 2.06329,2.06329 -2.06329,2.0649 -2.066498,-2.0649 2.066498,-2.06329 2.06329,2.06329 -2.06329,2.0649 -2.066498,-2.0649 2.066498,-2.06329"
       style="fill:none;stroke:#f9ab27;stroke-width:0.79418999;stroke-linecap:butt;stroke-linejoin:miter;stroke-miterlimit:10;stroke-dasharray:none;stroke-opacity:1"
       id="path44482"
       inkscape:connector-curvature="0" />
    <path
       d="M -103.61609,-164.42619 42.970533,-282.55514"
       style="fill:none;stroke:#231f20;stroke-width:0.79418999;stroke-linecap:butt;stroke-linejoin:miter;stroke-miterlimit:10;stroke-dasharray:3.97095006, 3.97095006;stroke-dashoffset:0;stroke-opacity:1"
       id="path44484"
       inkscape:connector-curvature="0" />
    <path
       d="m -3.8594025,-218.57551 0,0 m 11.2422008,0 0,0"
       style="fill:none;stroke:#7fcbf1;stroke-width:0.39789721;stroke-linecap:round;stroke-linejoin:miter;stroke-miterlimit:10;stroke-dasharray:none;stroke-opacity:1"
       id="path44486"
       inkscape:connector-curvature="0" />
    <text
       style="font-variant:normal;font-weight:normal;font-size:10.39666939px;font-family:Helvetica;-inkscape-font-specification:Helvetica;writing-mode:lr-tb;fill:#7fcbf1;fill-opacity:1;fill-rule:nonzero;stroke:none"
       id="text44488"
       x="13.022028"
       y="-215.81621">
      <tspan
         x="13.022028 19.374393 22.836485 28.617033 34.397579 37.287853 42.486191 48.266735 51.728828 57.509377"
         y="-215.81621"
         sodipodi:role="line"
         id="tspan44490">Tree shrew</tspan>
    </text>
    <path
       d="m -3.8594025,-204.79511 0,0 m 11.2422008,0 0,0"
       style="fill:none;stroke:#f9ab27;stroke-width:0.39789721;stroke-linecap:round;stroke-linejoin:miter;stroke-miterlimit:10;stroke-dasharray:none;stroke-opacity:1"
       id="path44492"
       inkscape:connector-curvature="0" />
    <text
       style="font-variant:normal;font-weight:normal;font-size:10.39666939px;font-family:Helvetica;-inkscape-font-specification:Helvetica;writing-mode:lr-tb;fill:#f9ab27;fill-opacity:1;fill-rule:nonzero;stroke:none"
       id="text44494"
       x="13.022028"
       y="-202.03534">
      <tspan
         x="13.022028 21.110638 26.891186 29.199245 34.979794 40.760342"
         y="-202.03534"
         sodipodi:role="line"
         id="tspan44496">Galago</tspan>
    </text>
    <path
       d="m -3.8594025,-191.01471 0,0 m 11.2422008,0 0,0"
       style="fill:none;stroke:#27833a;stroke-width:0.39789721;stroke-linecap:round;stroke-linejoin:miter;stroke-miterlimit:10;stroke-dasharray:none;stroke-opacity:1"
       id="path44498"
       inkscape:connector-curvature="0" />
    <text
       style="font-variant:normal;font-weight:normal;font-size:10.39666939px;font-family:Helvetica;-inkscape-font-specification:Helvetica;writing-mode:lr-tb;fill:#27833a;fill-opacity:1;fill-rule:nonzero;stroke:none"
       id="text44500"
       x="13.022028"
       y="-188.25461">
      <tspan
         x="13.022028 19.374393 25.154942 28.617033 32.079124 37.859673"
         y="-188.25461"
         sodipodi:role="line"
         id="tspan44502">Ferret</tspan>
    </text>
    <text
       transform="matrix(0,-1,1,0,0,0)"
       style="font-variant:normal;font-weight:normal;font-size:12.61029339px;font-family:Helvetica;-inkscape-font-specification:Helvetica;writing-mode:lr-tb;fill:#231f20;fill-opacity:1;fill-rule:nonzero;stroke:none"
       id="text44586"
       x="5.6449871"
       y="-117.61116">
      <tspan
         x="169.63683 178.04787 180.84737 187.85867 196.9633 203.97464 210.98596 217.99728 220.79677 227.1019 230.60757 237.6189 244.63022 248.82945 252.3351 262.83951"
         sodipodi:role="line"
         id="tspan44588">Pinwheels per mm</tspan>
    </text>
    <text
       style="font-variant:normal;font-weight:normal;font-size:12.61029339px;font-family:Helvetica;-inkscape-font-specification:Helvetica;writing-mode:lr-tb;fill:#231f20;fill-opacity:1;fill-rule:nonzero;stroke:none"
       id="text44590"
       x="143.22635"
       y="-136.66806">
      <tspan
         x="143.22635 152.33098 158.63612 165.64746 172.65877 176.858 183.16315 190.17447 192.97397 199.98529 210.48964 217.50098 221.00664 227.31178 230.11127 236.41641 243.42773 246.93341 251.13264 261.63702 272.14139 279.15271"
         y="-136.66806"
         sodipodi:role="line"
         id="tspan44592">Hypercolumn size (mm )</tspan>
    </text>
    <text
       style="font-variant:normal;font-weight:normal;font-size:9.80800629px;font-family:Helvetica;-inkscape-font-specification:Helvetica;writing-mode:lr-tb;fill:#231f20;fill-opacity:1;fill-rule:nonzero;stroke:none"
       id="text44594"
       x="272.43787"
       y="-140.68521">
      <tspan
         x="272.43787"
         y="-140.68521"
         id="tspan44596">2</tspan>
    </text>
    <text
       transform="matrix(0,-1,1,0,0,0)"
       style="font-variant:normal;font-weight:normal;font-size:9.80800629px;font-family:Helvetica;-inkscape-font-specification:Helvetica;writing-mode:lr-tb;fill:#231f20;fill-opacity:1;fill-rule:nonzero;stroke:none"
       id="text44598"
       x="273.7388"
       y="-120.01843">
      <tspan
         x="273.7388"
         y="-120.01843"
         id="tspan44600">2</tspan>
    </text>
    <text
       transform="matrix(0,-1,1,0,0,0)"
       style="font-variant:normal;font-weight:normal;font-size:12.61029339px;font-family:Helvetica;-inkscape-font-specification:Helvetica;writing-mode:lr-tb;fill:#231f20;fill-opacity:1;fill-rule:nonzero;stroke:none"
       id="text44602"
       x="178.41885"
       y="114.82965">
      <tspan
         x="178.41885 186.82991 189.62939 196.64072 205.74536 212.75668 219.76801 226.77934 229.57881 233.08322 240.09453 247.10588 254.11716 260.42233 263.2218 266.72748"
         y="114.82965"
         sodipodi:role="line"
         id="tspan44604">Pinwheel density</tspan>
    </text>
    <text
       style="font-variant:normal;font-weight:normal;font-size:12.61029339px;font-family:Helvetica;-inkscape-font-specification:Helvetica;writing-mode:lr-tb;fill:#231f20;fill-opacity:1;fill-rule:nonzero;stroke:none"
       id="text44606"
       x="-101.72286"
       y="-136.66806">
      <tspan
         x="-101.72286 -94.71154 -91.205879 -82.10125 -75.796097 -68.784782 -61.773457 -57.57423 -51.269077 -44.257759 -41.458271 -34.446949 -23.942572 -16.931255 -13.425592 -7.1204424 -4.3209553 1.9841928 8.9955072 12.50117 16.700396 23.711721 27.217386 37.721756 48.226135 55.237461"
         y="-136.66806"
         sodipodi:role="line"
         id="tspan44608">1/Hypercolumn size (1/mm )</tspan>
    </text>
    <text
       style="font-variant:normal;font-weight:normal;font-size:9.80800629px;font-family:Helvetica;-inkscape-font-specification:Helvetica;writing-mode:lr-tb;fill:#231f20;fill-opacity:1;fill-rule:nonzero;stroke:none"
       id="text44610"
       x="48.421085"
       y="-140.68521">
      <tspan
         x="48.421085"
         y="-140.68521"
         id="tspan44612">2</tspan>
    </text>
    <text
       style="font-variant:normal;font-weight:bold;font-size:16.04408264px;font-family:Helvetica;-inkscape-font-specification:Helvetica-Bold;writing-mode:lr-tb;fill:#231f20;fill-opacity:1;fill-rule:nonzero;stroke:none"
       id="text44684"
       x="-128.44328"
       y="-288.20889">
      <tspan
         x="-128.44328"
         y="-288.20889"
         id="tspan44686">A</tspan>
      <tspan
         x="-128.44328"
         y="-268.15378"
         sodipodi:role="line"
         id="tspan44694" />
    </text>
    <path
       d="m 214.92631,-286.66888 25.81518,0 0,35.74657 -25.81518,0 0,-35.74657 z"
       style="fill:#ffffff;fill-opacity:1;fill-rule:nonzero;stroke:none"
       id="path44696"
       inkscape:connector-curvature="0" />
    <path
       d="m 214.92631,-250.92231 25.81518,0 0,-35.74657 -25.81518,0 0,35.74657 z"
       style="fill:none;stroke:#ffffff;stroke-width:0.33051139;stroke-linecap:butt;stroke-linejoin:miter;stroke-miterlimit:10;stroke-dasharray:none;stroke-opacity:1"
       id="path44698"
       inkscape:connector-curvature="0" />
    <flowRoot
       xml:space="preserve"
       id="flowRoot48645"
       style="font-style:normal;font-weight:normal;font-size:40px;line-height:125%;font-family:sans-serif;letter-spacing:0px;word-spacing:0px;fill:#000000;fill-opacity:1;stroke:none;stroke-width:1px;stroke-linecap:butt;stroke-linejoin:miter;stroke-opacity:1"><flowRegion
         id="flowRegion48647"><rect
           id="rect48649"
           width="0"
           height="68.571426"
           x="-123.57143"
           y="-21.209225" /></flowRegion><flowPara
         id="flowPara48651"></flowPara></flowRoot>    <text
       y="-288.20889"
       x="115.79594"
       id="text48653"
       style="font-variant:normal;font-weight:bold;font-size:16.04408264px;font-family:Helvetica;-inkscape-font-specification:Helvetica-Bold;writing-mode:lr-tb;fill:#231f20;fill-opacity:1;fill-rule:nonzero;stroke:none">
      <tspan
         id="tspan48655"
         y="-288.20889"
         x="115.79594">B</tspan>
      <tspan
         id="tspan48657"
         sodipodi:role="line"
         y="-268.15378"
         x="115.79594" />
    </text>
  </g>
</svg>
