<?xml version="1.0" encoding="UTF-8" standalone="no"?>
<!-- Created with Inkscape (http://www.inkscape.org/) -->

<svg
   xmlns:dc="http://purl.org/dc/elements/1.1/"
   xmlns:cc="http://creativecommons.org/ns#"
   xmlns:rdf="http://www.w3.org/1999/02/22-rdf-syntax-ns#"
   xmlns:svg="http://www.w3.org/2000/svg"
   xmlns="http://www.w3.org/2000/svg"
   xmlns:sodipodi="http://sodipodi.sourceforge.net/DTD/sodipodi-0.dtd"
   xmlns:inkscape="http://www.inkscape.org/namespaces/inkscape"
   width="189.9101mm"
   height="73.878075mm"
   viewBox="0 0 672.90979 261.77271"
   id="svg7068"
   version="1.1"
   inkscape:version="0.91 r13725"
   sodipodi:docname="LGN_PSTH_Maunsell.svg">
  <defs
     id="defs7070">
    <clipPath
       clipPathUnits="userSpaceOnUse"
       id="clipPath10964">
      <path
         style="fill:none;fill-rule:evenodd;stroke:#ff0000;stroke-width:1px;stroke-linecap:butt;stroke-linejoin:miter;stroke-opacity:1"
         d="m 865.72898,624.5626 155.03012,0 0,-14.14213 -128.54186,-103.03556 -15.90991,0 0,98.74241 -10.57835,6.0911 z"
         id="path10966"
         inkscape:connector-curvature="0"
         sodipodi:nodetypes="cccccccc" />
    </clipPath>
    <clipPath
       clipPathUnits="userSpaceOnUse"
       id="clipPath11974">
      <path
         style="fill:none;fill-rule:evenodd;stroke:#000000;stroke-width:0.25;stroke-linecap:butt;stroke-linejoin:miter;stroke-opacity:1"
         d="m 1236.9643,655.93364 -155.3572,0 0,-8.92858 7.8572,-1.78571 0,-78.92857 50.3571,0 0,23.92857 97.1429,0 z"
         id="path11976"
         inkscape:connector-curvature="0"
         sodipodi:nodetypes="ccccccccc" />
    </clipPath>
    <clipPath
       clipPathUnits="userSpaceOnUse"
       id="clipPath12114">
      <path
         sodipodi:nodetypes="cccccccc"
         inkscape:connector-curvature="0"
         id="path12116"
         d="m 865.72898,624.5626 54.49443,0 0,-14.14213 -28.00617,-103.03556 -15.90991,0 0,98.74241 -10.57835,6.0911 z"
         style="fill:none;fill-rule:evenodd;stroke:#ff0000;stroke-width:1px;stroke-linecap:butt;stroke-linejoin:miter;stroke-opacity:1" />
    </clipPath>
    <clipPath
       clipPathUnits="userSpaceOnUse"
       id="clipPath13751">
      <path
         style="fill:none;fill-rule:evenodd;stroke:#ff0000;stroke-width:0.24999999;stroke-linecap:butt;stroke-linejoin:miter;stroke-opacity:1"
         d="m -208.78349,805.50618 0,-10.2278 30.10824,-97.22718 86.600274,44.19418 0,63.2608 z"
         id="path13753"
         inkscape:connector-curvature="0"
         sodipodi:nodetypes="cccccc" />
    </clipPath>
    <clipPath
       clipPathUnits="userSpaceOnUse"
       id="clipPath13794">
      <path
         sodipodi:nodetypes="cccccccc"
         inkscape:connector-curvature="0"
         id="path13796"
         d="m 879.20144,624.5626 42.63143,0 0,-31.86303 -29.61563,-85.31466 -10.93323,0.30456 -0.0256,96.78451 -2.05698,7.74444 z"
         style="fill:none;fill-rule:evenodd;stroke:#ff0000;stroke-width:0.3677223;stroke-linecap:butt;stroke-linejoin:miter;stroke-opacity:1" />
    </clipPath>
  </defs>
  <sodipodi:namedview
     id="base"
     pagecolor="#ffffff"
     bordercolor="#666666"
     borderopacity="1.0"
     inkscape:pageopacity="0.0"
     inkscape:pageshadow="2"
     inkscape:zoom="0.91841627"
     inkscape:cx="123.40352"
     inkscape:cy="28.722373"
     inkscape:document-units="px"
     inkscape:current-layer="layer4"
     showgrid="false"
     inkscape:window-width="1440"
     inkscape:window-height="851"
     inkscape:window-x="0"
     inkscape:window-y="1"
     inkscape:window-maximized="1"
     fit-margin-top="0"
     fit-margin-left="0"
     fit-margin-right="0"
     fit-margin-bottom="0" />
  <metadata
     id="metadata7073">
    <rdf:RDF>
      <cc:Work
         rdf:about="">
        <dc:format>image/svg+xml</dc:format>
        <dc:type
           rdf:resource="http://purl.org/dc/dcmitype/StillImage" />
        <dc:title></dc:title>
      </cc:Work>
    </rdf:RDF>
  </metadata>
  <g
     inkscape:label="Layer 1"
     inkscape:groupmode="layer"
     id="layer1"
     style="display:none"
     transform="translate(375.22141,-595.17279)"
     sodipodi:insensitive="true">
    <rect
       style="display:inline;opacity:1;fill:#ffffff;fill-opacity:1;stroke:none;stroke-width:0.25;stroke-miterlimit:4;stroke-dasharray:4, 1;stroke-dashoffset:0;stroke-opacity:1"
       id="rect13605"
       width="672.90979"
       height="261.77271"
       x="-375.22141"
       y="595.17279" />
  </g>
  <g
     inkscape:groupmode="layer"
     id="layer2"
     inkscape:label="Top"
     style="display:inline;opacity:1"
     transform="translate(375.22141,-595.17279)" />
  <g
     inkscape:groupmode="layer"
     id="layer3"
     inkscape:label="Data"
     style="display:inline"
     transform="translate(375.22141,-595.17279)">
    <path
       inkscape:connector-curvature="0"
       id="path12549"
       style="display:inline;opacity:1;fill:#ffffff;fill-opacity:1;fill-rule:nonzero;stroke:none"
       d="m 536.71056,798.73216 c 0.72019,-0.13825 1.44009,-0.69124 1.08186,-1.10598 0.35823,0.41474 -0.003,0.96773 -1.08186,1.10598" />
  </g>
  <g
     inkscape:groupmode="layer"
     id="layer4"
     inkscape:label="Axes"
     style="display:inline"
     transform="translate(375.22141,-595.17279)">
    <text
       xml:space="preserve"
       style="font-style:normal;font-weight:normal;font-size:20.0704174px;line-height:125%;font-family:sans-serif;letter-spacing:0px;word-spacing:0px;display:inline;opacity:1;fill:#000000;fill-opacity:1;stroke:none;stroke-width:1px;stroke-linecap:butt;stroke-linejoin:miter;stroke-opacity:1"
       x="-256.9173"
       y="642.57648"
       id="text10918"
       sodipodi:linespacing="125%"><tspan
         sodipodi:role="line"
         id="tspan10920"
         x="-256.9173"
         y="642.57648"
         style="font-style:normal;font-variant:normal;font-weight:normal;font-stretch:normal;font-family:Helvetica;-inkscape-font-specification:Helvetica">Magnocellular (n=78)</tspan></text>
    <text
       sodipodi:linespacing="125%"
       id="text10926"
       y="728.09625"
       x="-299.30585"
       style="font-style:normal;font-weight:normal;font-size:14.43209171px;line-height:125%;font-family:sans-serif;letter-spacing:0px;word-spacing:0px;display:inline;opacity:1;fill:#000000;fill-opacity:1;stroke:none;stroke-width:1px;stroke-linecap:butt;stroke-linejoin:miter;stroke-opacity:1"
       xml:space="preserve"><tspan
         style="font-style:normal;font-variant:normal;font-weight:normal;font-stretch:normal;font-family:Helvetica;-inkscape-font-specification:Helvetica;text-align:center;text-anchor:middle"
         y="728.09625"
         x="-299.30585"
         id="tspan10928"
         sodipodi:role="line">Average</tspan><tspan
         style="font-style:normal;font-variant:normal;font-weight:normal;font-stretch:normal;font-family:Helvetica;-inkscape-font-specification:Helvetica;text-align:center;text-anchor:middle"
         y="746.13635"
         x="-299.30585"
         sodipodi:role="line"
         id="tspan10930">Response</tspan><tspan
         style="font-style:normal;font-variant:normal;font-weight:normal;font-stretch:normal;font-family:Helvetica;-inkscape-font-specification:Helvetica;text-align:center;text-anchor:middle"
         y="764.17645"
         x="-299.30585"
         sodipodi:role="line"
         id="tspan10932">(spikes/s)</tspan></text>
    <text
       xml:space="preserve"
       style="font-style:normal;font-weight:normal;font-size:14.43209171px;line-height:125%;font-family:sans-serif;letter-spacing:0px;word-spacing:0px;display:inline;opacity:1;fill:#000000;fill-opacity:1;stroke:none;stroke-width:1px;stroke-linecap:butt;stroke-linejoin:miter;stroke-opacity:1"
       x="26.694147"
       y="728.09625"
       id="text13514"
       sodipodi:linespacing="125%"><tspan
         sodipodi:role="line"
         id="tspan13516"
         x="26.694147"
         y="728.09625"
         style="font-style:normal;font-variant:normal;font-weight:normal;font-stretch:normal;font-family:Helvetica;-inkscape-font-specification:Helvetica;text-align:center;text-anchor:middle">Average</tspan><tspan
         id="tspan13518"
         sodipodi:role="line"
         x="26.694147"
         y="746.13635"
         style="font-style:normal;font-variant:normal;font-weight:normal;font-stretch:normal;font-family:Helvetica;-inkscape-font-specification:Helvetica;text-align:center;text-anchor:middle">Response</tspan><tspan
         id="tspan13520"
         sodipodi:role="line"
         x="26.694147"
         y="764.17645"
         style="font-style:normal;font-variant:normal;font-weight:normal;font-stretch:normal;font-family:Helvetica;-inkscape-font-specification:Helvetica;text-align:center;text-anchor:middle">(spikes/s)</tspan></text>
    <text
       sodipodi:linespacing="125%"
       id="text13476"
       y="837.06171"
       x="-162.02669"
       style="font-style:normal;font-weight:normal;font-size:14.43209171px;line-height:125%;font-family:sans-serif;letter-spacing:0px;word-spacing:0px;display:inline;opacity:1;fill:#000000;fill-opacity:1;stroke:none;stroke-width:1px;stroke-linecap:butt;stroke-linejoin:miter;stroke-opacity:1"
       xml:space="preserve"><tspan
         style="font-style:normal;font-variant:normal;font-weight:normal;font-stretch:normal;font-family:Helvetica;-inkscape-font-specification:Helvetica;text-align:center;text-anchor:middle"
         y="837.06171"
         x="-162.02669"
         sodipodi:role="line"
         id="tspan13478">Time (ms)</tspan></text>
    <path
       inkscape:connector-curvature="0"
       id="path12954"
       style="display:inline;opacity:1;fill:#ffffff;fill-opacity:1;fill-rule:nonzero;stroke:none"
       d="m -238.09978,731.26721 -1.38274,-10e-4 c 0.69137,-0.13714 0.69137,0 1.38274,10e-4" />
    <g
       id="g13138"
       transform="translate(10.02559,2.02016)">
      <path
         inkscape:connector-curvature="0"
         id="path13097"
         d="m -249.80471,804.32929 -5.53572,0"
         style="display:inline;fill:none;fill-rule:evenodd;stroke:#000000;stroke-width:1px;stroke-linecap:butt;stroke-linejoin:miter;stroke-opacity:1" />
      <path
         style="display:inline;fill:none;fill-rule:evenodd;stroke:#000000;stroke-width:1px;stroke-linecap:butt;stroke-linejoin:miter;stroke-opacity:1"
         d="m -249.80471,676.58038 -5.53572,0"
         id="path13099"
         inkscape:connector-curvature="0" />
    </g>
    <text
       xml:space="preserve"
       style="font-style:normal;font-weight:normal;font-size:14.43021488px;line-height:125%;font-family:sans-serif;letter-spacing:0px;word-spacing:0px;display:inline;opacity:1;fill:#000000;fill-opacity:1;stroke:none;stroke-width:1px;stroke-linecap:butt;stroke-linejoin:miter;stroke-opacity:1"
       x="-261.08316"
       y="683.53271"
       id="text13111"
       sodipodi:linespacing="125%"><tspan
         id="tspan13113"
         sodipodi:role="line"
         x="-261.08316"
         y="683.53271"
         style="font-style:normal;font-variant:normal;font-weight:normal;font-stretch:normal;font-family:Helvetica;-inkscape-font-specification:Helvetica;text-align:center;text-anchor:middle">154</tspan></text>
    <text
       xml:space="preserve"
       style="font-style:normal;font-weight:normal;font-size:14.43021488px;line-height:125%;font-family:sans-serif;letter-spacing:0px;word-spacing:0px;display:inline;opacity:1;fill:#000000;fill-opacity:1;stroke:none;stroke-width:1px;stroke-linecap:butt;stroke-linejoin:miter;stroke-opacity:1"
       x="-246.94997"
       y="818.76373"
       id="text13115"
       sodipodi:linespacing="125%"><tspan
         id="tspan13117"
         sodipodi:role="line"
         x="-246.94997"
         y="818.76373"
         style="font-style:normal;font-variant:normal;font-weight:normal;font-stretch:normal;font-family:Helvetica;-inkscape-font-specification:Helvetica;text-align:center;text-anchor:middle">0</tspan></text>
    <path
       inkscape:connector-curvature="0"
       id="path13093"
       d="m -239.95769,806.03464 0,5.53572"
       style="display:inline;fill:none;fill-rule:evenodd;stroke:#000000;stroke-width:1px;stroke-linecap:butt;stroke-linejoin:miter;stroke-opacity:1" />
    <path
       style="display:inline;fill:none;fill-rule:evenodd;stroke:#000000;stroke-width:1px;stroke-linecap:butt;stroke-linejoin:miter;stroke-opacity:1"
       d="m -85.618069,806.03464 0,5.53572"
       id="path13095"
       inkscape:connector-curvature="0" />
    <text
       xml:space="preserve"
       style="font-style:normal;font-weight:normal;font-size:14.43021488px;line-height:125%;font-family:sans-serif;letter-spacing:0px;word-spacing:0px;display:inline;opacity:1;fill:#000000;fill-opacity:1;stroke:none;stroke-width:1px;stroke-linecap:butt;stroke-linejoin:miter;stroke-opacity:1"
       x="-85.28299"
       y="829.22717"
       id="text13107"
       sodipodi:linespacing="125%"><tspan
         id="tspan13109"
         sodipodi:role="line"
         x="-85.28299"
         y="829.22717"
         style="font-style:normal;font-variant:normal;font-weight:normal;font-stretch:normal;font-family:Helvetica;-inkscape-font-specification:Helvetica;text-align:center;text-anchor:middle">150</tspan></text>
    <path
       style="display:inline;fill:none;fill-rule:evenodd;stroke:#000000;stroke-width:1px;stroke-linecap:butt;stroke-linejoin:miter;stroke-opacity:1"
       d="m -239.8022,678.08038 0,128.26907 154.616079,0"
       id="path13089"
       inkscape:connector-curvature="0"
       sodipodi:nodetypes="ccc"
       clip-path="none" />
    <text
       sodipodi:linespacing="125%"
       id="text10922"
       y="642.91949"
       x="71.835304"
       style="font-style:normal;font-weight:normal;font-size:20.0704174px;line-height:125%;font-family:sans-serif;letter-spacing:0px;word-spacing:0px;display:inline;opacity:1;fill:#000000;fill-opacity:1;stroke:none;stroke-width:1px;stroke-linecap:butt;stroke-linejoin:miter;stroke-opacity:1"
       xml:space="preserve"><tspan
         style="font-style:normal;font-variant:normal;font-weight:normal;font-stretch:normal;font-family:Helvetica;-inkscape-font-specification:Helvetica"
         y="642.91949"
         x="71.835304"
         id="tspan10924"
         sodipodi:role="line">Parvocellular (n=80)</tspan></text>
    <text
       sodipodi:linespacing="125%"
       id="text12647"
       y="829.22717"
       x="241.61844"
       style="font-style:normal;font-weight:normal;font-size:14.43021488px;line-height:125%;font-family:sans-serif;letter-spacing:0px;word-spacing:0px;display:inline;opacity:1;fill:#000000;fill-opacity:1;stroke:none;stroke-width:1px;stroke-linecap:butt;stroke-linejoin:miter;stroke-opacity:1"
       xml:space="preserve"><tspan
         style="font-style:normal;font-variant:normal;font-weight:normal;font-stretch:normal;font-family:Helvetica;-inkscape-font-specification:Helvetica;text-align:center;text-anchor:middle"
         y="829.22717"
         x="241.61844"
         sodipodi:role="line"
         id="tspan12649">150</tspan></text>
    <path
       inkscape:connector-curvature="0"
       id="path12547"
       style="display:inline;opacity:1;fill:#ffffff;fill-opacity:1;fill-rule:nonzero;stroke:none"
       d="m 194.8129,771.39234 1.07827,-0.27649 0.35823,10e-4 -1.4365,0.27511" />
    <text
       xml:space="preserve"
       style="font-style:normal;font-weight:normal;font-size:14.43209171px;line-height:125%;font-family:sans-serif;letter-spacing:0px;word-spacing:0px;display:inline;opacity:1;fill:#000000;fill-opacity:1;stroke:none;stroke-width:1px;stroke-linecap:butt;stroke-linejoin:miter;stroke-opacity:1"
       x="162.73561"
       y="837.06171"
       id="text13387"
       sodipodi:linespacing="125%"><tspan
         id="tspan13389"
         sodipodi:role="line"
         x="162.73561"
         y="837.06171"
         style="font-style:normal;font-variant:normal;font-weight:normal;font-stretch:normal;font-family:Helvetica;-inkscape-font-specification:Helvetica;text-align:center;text-anchor:middle">Time (ms)</tspan></text>
    <path
       sodipodi:nodetypes="ccc"
       inkscape:connector-curvature="0"
       id="path13142"
       d="m 82.197804,678.08038 0,130.26907 160.062886,0"
       style="display:inline;fill:none;fill-rule:evenodd;stroke:#000000;stroke-width:1px;stroke-linecap:butt;stroke-linejoin:miter;stroke-opacity:1" />
    <path
       inkscape:connector-curvature="0"
       id="path13144"
       d="m 82.41337,808.19265 0,5.53572"
       style="display:inline;fill:none;fill-rule:evenodd;stroke:#000000;stroke-width:1px;stroke-linecap:butt;stroke-linejoin:miter;stroke-opacity:1" />
    <path
       style="display:inline;fill:none;fill-rule:evenodd;stroke:#000000;stroke-width:1px;stroke-linecap:butt;stroke-linejoin:miter;stroke-opacity:1"
       d="m 241.99891,808.19265 0,5.53572"
       id="path13146"
       inkscape:connector-curvature="0" />
    <path
       style="display:inline;fill:none;fill-rule:evenodd;stroke:#000000;stroke-width:1px;stroke-linecap:butt;stroke-linejoin:miter;stroke-opacity:1"
       d="m 188.80374,808.19265 0,5.53572"
       id="path13268"
       inkscape:connector-curvature="0" />
    <path
       style="display:inline;fill:none;fill-rule:evenodd;stroke:#000000;stroke-width:1px;stroke-linecap:butt;stroke-linejoin:miter;stroke-opacity:1"
       d="m 82.296554,808.34945 -5.53572,0"
       id="path13270"
       inkscape:connector-curvature="0" />
    <path
       inkscape:connector-curvature="0"
       id="path13272"
       d="m 82.296554,678.58038 -5.53572,0"
       style="display:inline;fill:none;fill-rule:evenodd;stroke:#000000;stroke-width:1px;stroke-linecap:butt;stroke-linejoin:miter;stroke-opacity:1" />
    <text
       sodipodi:linespacing="125%"
       id="text13296"
       y="683.53271"
       x="60.916832"
       style="font-style:normal;font-weight:normal;font-size:14.43021488px;line-height:125%;font-family:sans-serif;letter-spacing:0px;word-spacing:0px;display:inline;opacity:1;fill:#000000;fill-opacity:1;stroke:none;stroke-width:1px;stroke-linecap:butt;stroke-linejoin:miter;stroke-opacity:1"
       xml:space="preserve"><tspan
         style="font-style:normal;font-variant:normal;font-weight:normal;font-stretch:normal;font-family:Helvetica;-inkscape-font-specification:Helvetica;text-align:center;text-anchor:middle"
         y="683.53271"
         x="60.916832"
         sodipodi:role="line"
         id="tspan13298">154</tspan></text>
    <text
       sodipodi:linespacing="125%"
       id="text13300"
       y="811.25702"
       x="69.083153"
       style="font-style:normal;font-weight:normal;font-size:14.43021488px;line-height:125%;font-family:sans-serif;letter-spacing:0px;word-spacing:0px;display:inline;opacity:1;fill:#000000;fill-opacity:1;stroke:none;stroke-width:1px;stroke-linecap:butt;stroke-linejoin:miter;stroke-opacity:1"
       xml:space="preserve"><tspan
         style="font-style:normal;font-variant:normal;font-weight:normal;font-stretch:normal;font-family:Helvetica;-inkscape-font-specification:Helvetica;text-align:center;text-anchor:middle"
         y="811.25702"
         x="69.083153"
         sodipodi:role="line"
         id="tspan13302">0</tspan></text>
    <path
       transform="matrix(3.7612776,0,0,1.1059798,-3224.754,117.46844)"
       clip-path="url(#clipPath13794)"
       d="m 865.92856,506.50146 c -0.0213,9 0.0838,17.75 0.0638,26 -0.005,2.625 0.23875,5.12625 -0.0175,7.625 0.2475,1.37625 -0.13125,3 0.115,4.375 l -0.125,0 c 0.10625,7.875 0.21,16.87625 0.19375,24.12625 l -0.125,-10e-4 c 0.46125,16.75125 -0.44875,31.5 0.015,46.87625 0.125,0.25 0.25,0.125 0.375,0.125 0.1275,-0.99875 0.13,-1.87375 0.006,-2.75 0.25,0.12625 0.37625,-0.49875 0.625,0.002 l 0.12625,-0.125 c 0.2475,0.75 0.12,2 0.1175,2.75 0.375,0.12625 1.125,0.3775 1.12625,-0.1225 l -0.1225,-1.5 4.62625,-0.23875 0.003,-0.875 1,10e-4 -0.003,0.875 1.875,0.13 c 0.12375,0.625 -0.63,1.99875 0.62,1.75125 l 0.25,10e-4 0.13,-1.875 3.625,0.009 c 0.12625,-0.625 -0.1225,-1.00125 0.7525,-0.87375 0.375,0.001 0.125,-0.375 0.375,-0.49875 -0.37375,-0.12625 10e-4,-0.375 0.002,-0.625 1.625,-0.24625 -0.12875,1.62375 1.6225,1.12875 l 0.1375,-5.625 0.75,0.001 c 0.27375,-10.37375 0.175,-21.12375 0.325,-31.99875 0.375,-0.125 0.74875,0.25125 0.875,-0.24875 -0.21625,-14.5 -0.0575,-28.5 -0.0263,-42 0.49875,0.12625 1.25,-0.12125 1.00125,-0.7475 -0.23625,-5.625 -0.0963,-12.125 0.0425,-18 l 0.75,10e-4 -0.0175,7.5 2.75,0.007 0.1425,-7.625 0.875,0.001 0.006,-2.875 0.875,0.002 -0.0213,9.25 -0.25,0 0.37375,0.375 -0.0412,17.75 0.875,0.002 0.2275,9.5 0.75125,-0.1225 0.11875,2.75 0.87375,0.1275 c 0.2375,5.375 -0.275,10.74875 0.0888,15.75 l -0.25,0.12375 c 0.62375,0.6275 -0.50625,2.49875 1.12,1.87875 l 0.008,-2.875 0.875,10e-4 c 0.12,1.75 -0.1325,3.125 0.1125,4.875 l 0.875,0.002 -0.0163,7.375 0.875,0.002 c 0.1175,3.25 0.11,6 0.10375,9.125 0.24875,0.125 0.49875,0.37625 0.87375,0.1275 -0.2475,-0.62625 0.37875,-1.25 0.005,-1.75 0.25,0 1.12625,-0.4975 0.99875,0.37625 0,0.125 -0.125,0.25 -0.12625,0.375 0.375,10e-4 0.625,0.37625 1,0.002 l -0.0113,4.875 0.875,-0.1225 c 0.5025,-0.99875 -0.7425,-3.2525 1.0075,-2.8725 l 10e-4,-0.875 1,10e-4 -0.0125,5.75 c 0.25,10e-4 0.5,-0.24875 0.75,-0.1225 l 0.13375,-3.75 c 1.74875,0.25375 0.36875,2.50125 0.99125,3.8775 l 1.75,-0.12125 0.13125,-2.875 0.875,0.1275 -0.0125,5.625 c 1.87625,-0.745 -0.13125,2.625 1.87,1.88 l 0.005,-1.875 0.875,10e-4 0.12,1.875 0.75,0.002 c 0.24875,0.5 -0.003,1.25 0.8725,1.00125 0.62375,0.3775 -0.63,2.24875 0.99625,1.8775 l 0.13375,-3.74875 0.75,-0.12375 c 0.2475,1.25 -0.005,1.875 0.24375,2.875 0.625,-0.1225 2.4975,0.63125 1.87625,-0.995 l 0.875,0.1275 -0.004,1.875 c -0.125,-10e-4 -0.125,-10e-4 -0.125,-10e-4 -10e-4,0.125 -0.12875,1.375 0.7475,0.8775 l 0.125,0 0.25875,-3.875 c 1.62625,-0.49625 0.37125,1.62625 0.87,2.2525 -0.1275,1 -0.13,2.25 -0.008,3.5 l 0.75,10e-4 0.25375,-1.87375 1.625,0.004 c 0.24875,0.5 0.1225,1.125 0.8725,1.0025 l 2.875,0.006 0.2525,-1 1.75,0.005 -0.004,1.75 c 0.25,0.125 0.74875,0.25125 1,0.002 -0.1225,-1.25125 0.005,-2.5 0.008,-3.5 l 0.75125,-0.12375 c 0.24625,1.375 0.1175,3 0.11375,4.625 0.25,0.12625 0.625,0.12625 0.875,0.1275 l 0.12875,-1.875 0.75,10e-4 c 0.49875,0.50125 -0.75625,2.49875 1.12125,1.87875 l -0.1275,0.62375 c 0.25,0.25125 0.5,0.25125 0.875,0.2525 l -0.002,1 1.125,0.002 0.005,-2 0.875,0.1275 -0.009,3.75 2,-0.24625 -0.12125,-1.625 2,-0.12 c 0.002,-0.75 -0.62,-2.12625 0.505,-1.87375 0.37375,0.37625 0.2475,1.125 0.245,1.875 0.25,0.25125 0.62625,-0.1225 1,0.1275 l -10e-4,0.875 0.875,0.002 0.1275,-1.125 c 0.37375,0.25125 0.74875,0.37625 0.875,0.002 l 0.009,-3.75 0.87375,0.25125 0.115,4.50125 c 0.49875,0.12625 1.125,0.002 1.75,0.12875 l 0.11625,3.75 0.74875,0.001 0.255,-1.87375 c 0.875,0.2525 0.75125,-0.49875 1.0025,-1.1225 0.625,-0.12375 1.12375,0.3775 1.75,0.12875 l 0.005,-2 c 0.375,-0.12375 0.62375,0.50125 0.75,10e-4 0.37375,0.12625 -0.12625,0.375 0.1225,0.62625 0.3725,1.125 -0.8825,3.2475 0.9925,3.2525 -0.1275,1.12375 -0.12875,1.87375 -0.13125,2.74875 l 2,0.13 c -0.1275,1 -0.004,1.75 -0.13125,2.625 0.375,0.12625 0.62375,0.37625 0.875,0.1275 l 0.2525,-1 0.875,0.1275 c 0.1225,0.625 -0.50375,1.49875 0.37,1.875 1.125,-0.1225 2.25,-0.11875 3.375,-0.11625 0.001,-0.25 0.001,-0.625 0.003,-0.875 l 0.75,10e-4 c 0.6225,0.87625 -0.6325,2.99875 1.11875,2.7525 l 0.006,-2.75 0.875,0.002 c 0.12375,0.25 -0.12625,0.625 0.1225,1 l 0.75,-0.12375 0.1225,1.00125 1.75125,-0.12125 0.25125,-0.875 c 0.875,0.3775 1.75125,-0.245 2.75,0.006 l -0.004,1.875 c 0.25,0.12625 0.5,0.001 0.875,0.002 l 0.006,-2.625 0.875,-0.2475 0.12,2 0.87625,-0.1225 0.004,-1.875 1,10e-4 -0.003,1 c 0.25125,-0.24875 0.375,0.25125 0.75,0.002 0.25125,-0.625 0.003,-1.125 0.13,-1.875 0.625,0.12625 1.375,-0.24625 1.875,0.13 l -0.002,0.75 c 0.5,10e-4 1.25,0.1275 1.75,0.004 -0.12375,-0.625 0.3775,-1.12375 1.1275,-0.8725 l -0.1275,0.875 0.875,10e-4 0.13,-1.87375 0.75,10e-4 c 0.4975,0.75125 -0.1275,1.125 0.245,1.875 l 1.75,0.005 0.1275,-0.875 0.75,10e-4 c -0.4975,-1.37625 1.00125,-0.7475 1.7525,-0.995 l 0.25,0 c -0.37625,0.49875 0.2475,0.62625 0.1225,1 0.74875,0.3775 1.00125,-0.6225 0.8775,-0.9975 0.75,-0.24875 3.1225,0.8825 2.75125,-0.86875 l 1,0.002 c -10e-4,0.625 -0.3775,1.37375 -0.004,1.875 l 0.875,0.002 c 0.12375,0.625 -0.2525,1.12375 -0.005,1.75 l 0.75,0.12625 0.13375,-3.75 c 0.375,0.12625 1.25125,-0.49625 1,0.3775 -0.003,0.875 -0.005,1.625 -0.13125,2.25 l 0.875,0.1275 0.13125,-2.75 1,-0.1225 c -0.25,0.12375 0.1225,1.125 -0.3775,1.37375 0.375,0.12625 0.24875,0.25 0.24875,0.375 l 1,0.2525 -10e-4,0.375 -0.125,0 c 0,0.125 0.24875,0.62625 0.74875,0.50125 l 0.25,0.001 0.13125,-2.75 c 0.125,-0.125 0.5,-0.12375 0.875,-0.1225 -10e-4,0.625 -0.1275,1.375 0.12125,2 l 4.62504,0.0112 c -0.375,0.12375 -10e-4,0.375 -0.1275,0.74875 0.375,0.12625 1,0.2525 1.1262,-0.24625 -0.4987,-0.87625 0,-1.625 -0.12,-2.50125 0.625,0.25125 2.1263,-0.495 1.9988,0.88 -0.25,0.125 0,0.75 -0.2525,1 l 1,10e-4 c 0.1262,-0.49875 -0.1225,-1.25 0.7525,-0.8725 l 0.125,0 0.12,1.75 0.875,0.002 0.1325,-2.875 c 0.4987,0.12625 1.125,0.002 1.75,0.004 l 0,1 c 1,-0.2475 0.8725,0.7525 1.1225,1.00375 l 0.75,10e-4 0.1275,-0.875 0.75,0.002 c 0.3737,0.25 -0.2513,0.37375 0.2475,0.625 -0.1238,-0.125 -0.25,0 -0.25,0.125 0.25,0.25 0.625,0.001 1,0.25125 -0.3725,-1 0.6275,-1.1225 1.2525,-1.12125 l 0.625,0.12625 c -0.5013,0.24875 0.2475,0.625 0.2475,0.75 0.125,0.37625 0.5,-0.12375 0.625,0.002 l -0.125,0.37375 0.1237,10e-4 0.1238,0.625 c 0.5012,-0.49875 2.3737,0.88 1.7512,-0.62125 l 0.1263,-0.375 c 0.2487,0.50125 0.5,-0.12375 0.875,0.002 l 0,-0.875 0.875,0.1275 0,0.75 1,0.12625 c -0.2513,0.625 0.1225,1.12625 0.7475,0.8775 l 0.125,0 c 0.2512,-0.49875 -0.1225,-1 0,-1.75 0.375,-0.12375 0.75,-0.12375 1,-0.1225 -0.2588,3.62375 0.1075,7.5 -0.026,11.25 l -0.125,0 c 0.2488,0.625 0.1213,1.75 0.1188,2.625 l -1.875,0.12 0.01,-3.125 c -8.25,-0.26875 -16.0013,0.0888 -25.50004,-0.0587 l -0.1325,2.75 -0.875,-0.002 0.006,-2.75 -27.99875,-0.065 -0.2575,2.87375 -0.75,-10e-4 0.006,-2.75 -13.375,-0.0312 -0.12875,1.75 c -5,0.2375 -8.75,-0.0212 -13.75,0.0925 -10e-4,0.5 -0.004,1.375 -0.8775,0.9975 l -0.1225,-1 -27.12625,0.18625 c -0.001,0.5 -0.003,1.125 -0.87625,0.87375 l -0.1225,-1.00125 c -8.75125,0.105 -18.00125,0.20875 -26.62625,0.0638 l -0.1275,1.375 -1.875,-0.005 0.008,-3.25 -17.25,0.085 0.004,-1.875 3.75,-0.11625 0.16375,-70 c 0.125,0.125 0.125,0 0.25,0 l -0.25,-0.125 c 0.14125,-6.625 -0.22,-12.62625 0.0437,-18.75 l -0.24875,-0.12625 c 0.1325,-3.62375 0.13875,-6.24875 -0.1025,-9.75 0.125,0 0.25,-0.12375 0.25,-0.24875 0.0125,-5.125 -0.10125,-9.87625 -0.09,-15.12625 -1.12375,-0.2525 -2.62375,-0.13125 -3.74875,-0.13375 l 0.004,-1.625 c 1.625,-0.24625 2.75,0.13125 4.625,-0.11375"
       style="display:inline;opacity:1;fill:#000000;fill-opacity:1;fill-rule:nonzero;stroke:none"
       id="path12625"
       inkscape:connector-curvature="0" />
    <path
       style="display:inline;fill:none;fill-rule:evenodd;stroke:#000000;stroke-width:1px;stroke-linecap:butt;stroke-linejoin:miter;stroke-opacity:1"
       d="m -137.0646,806.03464 0,5.53572"
       id="path13480"
       inkscape:connector-curvature="0" />
    <path
       inkscape:connector-curvature="0"
       id="path12996"
       style="display:inline;opacity:1;fill:#000000;fill-opacity:1;fill-rule:nonzero;stroke:none"
       d="m -245.11432,675.86088 c -0.69497,0.68435 0,0.82287 -0.3562,1.64574 l -0.34568,-10e-4 0.66039,5.62429 -1.03705,0.13577 c 1.38274,10e-4 0,0.68572 0.68777,0.6871 -0.34568,-10e-4 -0.69136,-0.13852 -1.04064,0.13577 2.0777,-0.13577 0.68805,0.96001 1.3761,1.50996 l -0.69137,-10e-4 c 0.68445,0.82424 0.68086,1.92139 -0.0277,3.01718 l 0.34569,10e-4 c 0.63606,9.46297 -0.46681,20.43314 0.16869,29.76033 l -0.34568,0 c 0.33877,0.96001 0.33213,2.19431 0.32522,3.29147 l -0.34569,0 c 0.67754,2.4686 -0.0304,5.48577 0.30061,7.81723 l -1.03705,-0.001 c 1.38273,0.13852 0.68777,0.41281 0.68777,0.82424 0.27682,11.24584 0.22124,21.12023 0.49779,32.64036 l -0.34569,0 c 0.31112,6.1715 0.62251,12.0687 -0.11338,19.20021 l 0.34568,0 -1.03705,0.27292 1.38273,0.13852 c -0.37693,5.21148 -0.40458,9.73725 -0.0913,15.08588 l 0.69137,10e-4 c 0.349,-0.54857 0,-1.37144 0.35592,-1.92002 0.69496,-0.27429 3.45683,0.002 5.18885,-0.13303 -1.04065,0.27429 0,0.54858 -0.3526,0.82287 1.03705,0.13851 2.07051,0.55132 2.76547,-0.1344 l 0,-0.54858 c 0.69496,-0.13577 1.72842,-0.13577 2.42338,-0.1344 l 0.33877,0.96001 c 2.07742,-0.41006 5.87303,0.69121 5.19217,-0.9559 4.49748,-0.81738 1.02654,1.78425 4.83266,0.9655 0,0.13714 0.34209,0.68572 0,0.96001 0.69136,0.13714 1.72841,0.27566 2.76547,0.002 l 0,-1.92002 5.18885,-0.13303 c -0.3526,0.82287 0.33877,1.2343 2.06718,1.0999 0.34209,0.41143 0.68086,1.64573 3.10424,0.96275 0,-0.68572 0.3526,-1.09715 2.08102,-0.95864 l 0.69137,0 -0.3526,0.96002 c 2.0741,0.13988 3.11115,0.13988 2.75855,1.09989 1.03706,0.13852 1.38606,-0.13577 2.41979,0.002 0.69828,-0.68572 -0.68113,-1.78425 1.05088,-2.19431 0.34568,0.13851 0.69137,0.13851 1.03705,0.13851 l 0.69137,-0.13577 -0.0277,2.19431 2.41979,10e-4 0.35951,-2.05717 c 0.69137,-0.27292 3.45324,0.27841 2.4231,-0.54583 l 0,-0.54858 c 0.69137,10e-4 1.72842,10e-4 2.41979,0.13989 l 0.36283,-3.15432 2.41978,0.002 0.0581,-9.87439 c 0.34568,-0.13715 -0.33877,-1.09853 0,-1.50859 l 0,-0.96001 2.41978,10e-4 0.0857,-14.5373 2.76547,-0.1344 0.0913,-15.22303 2.07411,0.002 0.45989,-19.74879 2.07411,10e-4 0.0664,-11.10869 2.76906,-0.1344 c 0.7016,-1.92002 -0.32494,-3.97719 0.036,-6.1715 l 2.41979,0.003 0,1.09716 2.76547,-0.1344 0,-2.05717 2.41978,0.13852 c 0.33186,2.19431 -0.0276,3.97718 -0.0387,6.03435 1.03705,0.27566 2.41978,0.002 3.46043,-0.13303 -1.38274,-0.27566 -0.68805,-1.09853 -0.68114,-1.78425 l 2.41979,0.002 -0.0277,3.01717 c 1.03346,0.13715 1.72483,0.13852 2.76188,0.13989 0.3526,-0.68572 -0.33518,-1.50996 2.08101,-1.23293 1.03705,10e-4 0.34569,0.41143 0.34237,0.68572 l -0.34568,0.13715 0.69136,0.13714 c -1.04396,1.09716 0.33186,2.05854 -0.36642,3.15432 1.03705,0.13852 2.0741,0.27703 2.76547,0.002 l 0,-0.96001 2.41978,0.13988 -0.0415,6.99437 2.76547,0.002 c 0,1.50859 -0.0276,2.74289 -0.0276,3.97719 0.69136,0.13714 2.41978,0.001 2.41646,0.4128 0.68777,0.6871 -1.39656,2.46723 2.75496,1.92277 -0.349,0.96001 0.33186,2.60574 -0.0276,3.97718 5.18166,0.82836 0,-1.92002 5.19217,-0.95452 l 0,-1.09716 2.41978,10e-4 c 0.68446,1.23567 -1.74916,3.29009 2.74473,3.15706 l -0.0277,3.01718 2.76547,0.13989 c -1.03706,0.27292 0.34236,0.82286 -0.34901,0.96001 l 2.76188,0.13989 0,1.92002 2.41978,0.13851 c -0.69496,0.68572 1.03014,1.09853 2.75856,1.0999 l 0,2.05717 c 1.03705,0.001 1.38605,-0.27292 2.41978,0.002 0,0.27429 0.34209,0.54858 0,0.82287 0.34237,0.41143 1.03706,-0.13715 1.72842,0.13851 l 0.34569,-0.13714 c 0.69136,0.27566 1.03373,0.68709 0.68445,0.96138 l 2.41979,0.27566 c 0,0.82287 0.33185,2.05717 -0.0277,2.88003 l 5.18526,0.005 c 0.349,-0.68572 -0.33877,-1.09853 2.08101,-1.09579 l 0.69137,10e-4 0.3526,-0.96001 2.0705,0.001 0.32854,3.01717 2.41979,0.002 0,-0.96001 5.185251,0.005 -0.02766,3.84005 5.18166,0.2784 -0.02765,2.88003 c 0.691367,0.13852 1.728418,0.13852 2.419785,0.13989 l 0.02766,-5.07434 2.419785,0.001 c 1.043965,-1.09578 -0.331856,-2.33145 0.712109,-3.15295 1.033456,0.41281 1.728418,-0.27291 2.41619,0.27566 -0.349002,0.68573 0,1.92003 -0.359511,2.74289 l 7.950725,0.14538 -0.02765,2.88003 c 1.037051,0 1.724823,0.27566 2.419786,10e-4 l 0.349002,-0.96001 2.074102,0.13989 0.366424,-3.29146 c 3.802521,-0.40732 2.06387,1.37281 2.405959,2.19705 l -0.345684,-0.001 0.328538,3.01855 2.765469,0.002 c 0.349002,-0.82286 0,-1.92002 0.02766,-3.15432 l 2.419785,0.13852 c 0.688049,0.68709 -1.396562,2.05579 1.714591,2.05854 1.040646,-0.13578 2.077697,-0.13441 3.460432,-0.13303 0,-0.68573 0.698281,-1.2343 2.768788,-0.95727 l -0.02765,3.01717 7.605041,0.14401 c 0.355916,-1.50859 0.02765,-2.4686 0.02765,-4.25148 l 2.765469,0.13989 -0.03042,5.07434 c 3.111153,0.13989 2.07742,-0.41006 2.772383,-1.23293 -0.688049,-0.13714 0.352597,-0.68435 0,-0.96001 4.486974,0.96413 0.701599,-1.91865 4.846485,-0.95452 0,0.82286 -0.359511,1.91865 1.023223,2.19431 3.456837,0.14126 0.7016,-1.64436 1.742246,-2.19294 0.687772,0.4128 1.382735,-0.1344 2.419786,0.002 0.694685,-0.68435 0,-1.09715 2.423104,-1.09441 l 0.318029,5.21149 2.419785,0.002 0.349279,-1.09715 2.074102,10e-4 0.359511,-2.05579 4.839571,0.14126 c 0.687773,0.41143 -0.698281,0.82149 0.684454,1.09715 0.691367,-0.13577 1.382735,-0.13577 1.728418,-0.13577 l 0.331857,2.19568 c 1.040369,-0.54858 2.074102,0.27566 2.768788,-0.1344 0,0.41143 -0.698281,0.95864 0.33877,1.09715 0.691367,-0.27428 1.382734,10e-4 2.074102,10e-4 1.033732,0.54995 -2.091248,2.60437 2.409553,1.92277 l 0.355916,-2.05717 2.4197855,0.13989 c 1.0370509,-0.27429 0,-0.68572 0,-1.09716 1.379416,0.27566 3.8025202,-0.27154 2.7723829,-1.09441 l 2.4164671,0.13852 -0.027655,3.97718 2.7654693,0.002 -0.027655,4.11433 2.0774206,0.002 c 1.0232236,1.92002 0.3249426,3.42861 0.660394,5.21149 l 2.4161906,0.13989 -0.027655,3.97718 c 1.7250997,0.13852 3.1078344,0.13989 2.7585556,0.96139 l -0.6946859,0.27428 c 1.037051,0.13852 0.3420885,0.96001 0.33877,1.2343 0.6877722,0.82424 0.33877,1.64574 0.3318563,2.60575 0.6913673,0.13851 1.3791395,0.4128 2.074102,0.13988 1.375821,0.96139 -0.359511,2.19431 0.6706263,3.29147 l 2.0741017,-0.1344 c 0.342089,0.96001 0.335175,2.19431 0.324943,3.56575 l -0.345684,0 c -0.349279,0.54721 2.074102,0.41281 3.107558,0.55132 l 0,1.09716 2.419786,0.001 c 0,0.27429 -0.7016,1.2343 1.375821,0.96139 1.037051,10e-4 2.765469,0.002 3.80252,0.004 -0.684454,-0.96001 1.386053,-0.95864 2.772383,-1.09441 l 0,-0.96001 c 3.80252,0.002 6.917268,-0.13029 10.024826,0.01 0,-0.68573 0.701876,-1.50859 2.772383,-0.95864 0,1.09715 0.331856,2.46997 0.325219,3.42998 -1.037051,0.13577 0.342089,0.41143 0,0.68572 1.382735,10e-4 3.456837,0.002 4.493888,0.004 0.342088,0.41143 0.684454,1.37144 2.758555,0.96275 -0.33877,-0.96138 1.043965,-0.96001 3.118067,-1.23156 l 0,-0.82286 2.419786,-0.13577 0,1.09715 c 1.037051,0.13852 3.111153,0.13989 3.114748,-0.40869 -0.688049,-0.54858 -0.684454,-0.96001 -0.339047,-1.50859 l 2.423381,0.002 -0.352597,0.82286 3.111153,0.13989 c -1.037051,0.13577 0.688048,0.54858 -0.694686,0.41006 1.033456,0.54995 0.338493,1.09853 0.680858,1.64711 l 2.423105,-0.13578 0,-0.82286 c 2.765469,0.13988 2.42338,-0.68298 3.118066,-1.23156 l 2.074102,0.13989 c 0,0.41143 -0.356192,1.37144 0.335175,1.92002 0.688049,0.13851 3.107834,0.27703 2.423381,-0.54584 l 0,-0.27428 c 0.691367,-0.27429 1.382734,0.13851 2.419785,-0.13578 l 0,1.09716 c 1.386054,-0.13578 3.456837,0.004 4.84289,-0.13166 0.688049,0.54858 -0.355916,1.37007 2.06387,1.23567 l 0.691367,10e-4 0.355916,-1.2343 c 1.033733,0.41143 1.728419,-0.13578 2.419786,10e-4 l 0,-0.82286 c 0.694686,-0.27292 1.728418,0.13989 2.765469,-0.1344 l 0,2.05716 c 2.416467,0.55132 2.769065,-0.54583 2.772383,-1.09441 2.762151,0.13989 4.836253,0.14126 7.259357,0.007 -0.684177,-1.64573 5.188848,-0.68023 7.954318,-0.95315 0.69496,-0.27292 -0.33877,-0.96001 0.69828,-1.09578 l 1.72842,0.13851 0.3526,-1.09715 c 1.03705,10e-4 3.10755,0.27703 2.41978,-0.40869 l 0,-0.54858 c 1.03705,10e-4 1.73201,-0.27292 2.76547,0.002 l -0.34568,0.13715 0.34568,0.13714 c 0,0.54858 0,0.96001 0,1.37145 l -0.349,0.13714 c 0.68777,0.54858 1.72842,10e-4 2.41978,0.27566 0.69469,-0.68435 0.3526,-1.37144 3.11807,-1.09441 l 0,0.96001 10.37051,0.01 c -0.34928,0.54858 0,1.50859 2.41287,1.23705 l 0.35951,-2.19431 2.41979,0.002 c -0.34928,0.41143 0,0.54858 0,0.96001 l 2.41978,10e-4 c -0.34927,0.68572 0.68446,1.23567 2.41288,1.0999 1.38605,-0.68435 0.0276,-1.92003 0.70851,-2.88004 l 0,-0.27428 2.41978,0.002 c 0,0.96001 -0.35951,2.05717 -0.3631,2.88003 0.68805,0.41143 3.10783,0.55132 3.11115,-0.1344 l -0.33517,-1.64573 2.41978,-0.13578 0.33186,2.19569 c 4.83598,0.41554 1.38965,-1.23293 2.7793,-2.19157 l 4.83957,0.14126 c 0,0.54858 -1.05088,2.05579 1.71459,2.05853 l 1.03705,-0.13577 c 0.3526,-1.09715 0.0276,-1.92002 0.0276,-3.01717 l 2.07411,10e-4 0.33185,2.05717 c 1.03705,0.27566 3.11447,-0.40869 3.10756,0.41417 l -1.03705,0.13715 c 0.34236,0.68572 2.07078,0.54995 3.10783,0.55132 l 0.35951,-2.19431 4.83958,0.004 0.33877,1.09715 7.60504,0.008 c 0.34568,0.27429 -0.69829,1.37007 1.7215,1.09853 l 0.69137,0 0.35951,-2.19294 2.41978,0.001 0,0.96001 2.41979,0.13989 c 0.31803,4.80005 0.29037,9.18867 0.26272,14.26301 -1.72842,-10e-4 -3.80252,-0.004 -5.18526,-0.004 l 0.0277,-3.56575 -71.21084,0.0699 -0.36642,3.01717 -2.07078,-10e-4 c 0,-0.96001 0.35951,-2.33146 -1.01963,-3.1557 -24.547134,0.25235 -50.469813,-0.0466 -74.321986,0.0686 l -0.366425,3.15432 -2.419785,-0.002 0.02765,-3.01717 c -13.132384,-0.42378 -26.27195798,-0.0247 -39.407937,-0.037 -0.694686,0.68572 1.026818,1.78425 -1.392967,2.0558 l -36.988152,-0.0342 c -0.349279,0.54857 0.680859,1.50995 -2.081016,1.09578 l -0.691367,0 0,-0.96001 -74.667675,-0.0699 c -0.34927,0.54858 0,1.37144 -3.11806,0.95727 0,-0.27429 0,-0.54858 0.3526,-0.96001 l -73.97631,-0.0686 -0.70187,1.50859 -4.83958,-0.004 0.0277,-3.42861 -38.0252,-0.0357 c 0,-0.13715 0,-0.41144 -0.34209,-0.41144 -0.34569,-10e-4 -0.69496,0.13578 -1.04065,0.27292 l 0.34569,0.13715 0.34568,0 -8.98778,-0.008 0,-2.05717 10.37051,-0.12754 0.0802,-13.71444 -0.0747,-46.08051 0.25996,-43.61191 -0.22677,-20.02308 0.69137,0 c -1.03705,-0.13715 -0.68446,-1.37145 -0.33518,-1.78288 l -10.37051,-0.14674 c -0.34236,-0.41144 -0.68445,-1.37145 0.3526,-1.37145 l -0.34568,0 0,-0.54857 12.79029,0.0124"
       clip-path="url(#clipPath13751)"
       transform="matrix(1.3243753,0,0,1,36.803451,0.63896)" />
    <path
       inkscape:connector-curvature="0"
       id="path13888"
       d="m -188.51115,806.03464 0,5.53572"
       style="display:inline;fill:none;fill-rule:evenodd;stroke:#000000;stroke-width:1px;stroke-linecap:butt;stroke-linejoin:miter;stroke-opacity:1" />
    <path
       inkscape:connector-curvature="0"
       id="path13890"
       d="m 135.60854,808.19265 0,5.53572"
       style="display:inline;fill:none;fill-rule:evenodd;stroke:#000000;stroke-width:1px;stroke-linecap:butt;stroke-linejoin:miter;stroke-opacity:1" />
  </g>
</svg>
