<?xml version="1.0" encoding="UTF-8" standalone="no"?>
<!-- Created with Inkscape (http://www.inkscape.org/) -->

<svg
   xmlns:dc="http://purl.org/dc/elements/1.1/"
   xmlns:cc="http://creativecommons.org/ns#"
   xmlns:rdf="http://www.w3.org/1999/02/22-rdf-syntax-ns#"
   xmlns:svg="http://www.w3.org/2000/svg"
   xmlns="http://www.w3.org/2000/svg"
   xmlns:sodipodi="http://sodipodi.sourceforge.net/DTD/sodipodi-0.dtd"
   xmlns:inkscape="http://www.inkscape.org/namespaces/inkscape"
   width="336.52545mm"
   height="120.90511mm"
   viewBox="0 0 1192.413 428.40391"
   id="svg2"
   version="1.1"
   inkscape:version="0.91 r13725"
   sodipodi:docname="Mexican_hat.svg">
  <defs
     id="defs4"
     style="stroke-linecap:butt;stroke-linejoin:round;stroke-miterlimit:100000">
    <style
       id="style12584"
       type="text/css">
*{stroke-linecap:butt;stroke-linejoin:round;stroke-miterlimit:100000;}
  </style>
    <style
       id="style14082"
       type="text/css">
*{stroke-linecap:butt;stroke-linejoin:round;stroke-miterlimit:100000;}
  </style>
  </defs>
  <sodipodi:namedview
     id="base"
     pagecolor="#ffffff"
     bordercolor="#666666"
     borderopacity="1.0"
     inkscape:pageopacity="0.0"
     inkscape:pageshadow="2"
     inkscape:zoom="0.98994949"
     inkscape:cx="450.18129"
     inkscape:cy="123.81378"
     inkscape:document-units="px"
     inkscape:current-layer="layer1"
     showgrid="false"
     fit-margin-top="0"
     fit-margin-left="0"
     fit-margin-right="0"
     fit-margin-bottom="0"
     inkscape:window-width="1440"
     inkscape:window-height="851"
     inkscape:window-x="0"
     inkscape:window-y="1"
     inkscape:window-maximized="1" />
  <metadata
     id="metadata7">
    <rdf:RDF>
      <cc:Work
         rdf:about="">
        <dc:format>image/svg+xml</dc:format>
        <dc:type
           rdf:resource="http://purl.org/dc/dcmitype/StillImage" />
        <dc:title></dc:title>
      </cc:Work>
    </rdf:RDF>
  </metadata>
  <g
     inkscape:label="Layer 1"
     inkscape:groupmode="layer"
     id="layer1"
     transform="translate(126.69866,-81.322037)">
    <g
       style="stroke-linecap:butt;stroke-linejoin:round;stroke-miterlimit:100000"
       id="patch_1"
       transform="matrix(1.25,0,0,1.25,-199.75715,300.28861)" />
    <g
       style="stroke-linecap:butt;stroke-linejoin:round;stroke-miterlimit:100000"
       id="patch_1-9"
       transform="matrix(1.25,0,0,1.25,-71.9,170.2886)" />
    <g
       id="text_3"
       style="stroke-linecap:butt;stroke-linejoin:round;stroke-miterlimit:100000"
       transform="matrix(1.25,0,0,1.25,-71.9,170.2886)">
      <!-- C -->
      <defs
         id="defs14132" />
      <g
         id="g14135"
         transform="matrix(0.18,0,0,-0.18,597.6,28.077187)"
         style="stroke-linecap:butt;stroke-linejoin:round;stroke-miterlimit:100000" />
    </g>
    <text
       sodipodi:linespacing="125%"
       id="text14265"
       y="164.96204"
       x="407.32208"
       style="font-style:normal;font-weight:normal;font-size:27.87149048px;line-height:125%;font-family:sans-serif;letter-spacing:0px;word-spacing:0px;fill:#000000;fill-opacity:1;stroke:none;stroke-width:1px;stroke-linecap:butt;stroke-linejoin:miter;stroke-miterlimit:100000;stroke-opacity:1"
       xml:space="preserve"><tspan
         y="164.96204"
         x="407.32208"
         style="font-style:normal;font-variant:normal;font-weight:normal;font-stretch:normal;font-family:Helvetica;-inkscape-font-specification:'Helvetica Bold';stroke-linecap:butt;stroke-linejoin:round;stroke-miterlimit:100000"
         id="tspan14267"
         sodipodi:role="line" /></text>
    <g
       id="g14441"
       transform="translate(7.4265001,0)"
       style="stroke-linecap:butt;stroke-linejoin:round;stroke-miterlimit:100000">
      <g
         style="stroke-linecap:butt;stroke-linejoin:round;stroke-miterlimit:100000"
         transform="translate(-157.11678,6.0609325)"
         id="g14325">
        <path
           style="fill:none;fill-rule:evenodd;stroke:#fc4f30;stroke-width:5;stroke-linecap:butt;stroke-linejoin:miter;stroke-miterlimit:100;stroke-dasharray:none;stroke-opacity:1"
           d="m 65.386316,490.64792 44.285714,0"
           id="path14249"
           inkscape:connector-curvature="0"
           sodipodi:nodetypes="cc" />
        <text
           sodipodi:linespacing="125%"
           id="text14253"
           y="497.65662"
           x="123.97185"
           style="font-style:normal;font-weight:normal;font-size:27.87149048px;line-height:125%;font-family:sans-serif;letter-spacing:0px;word-spacing:0px;fill:#000000;fill-opacity:1;stroke:none;stroke-width:1px;stroke-linecap:butt;stroke-linejoin:miter;stroke-miterlimit:100000;stroke-opacity:1"
           xml:space="preserve"><tspan
             y="497.65662"
             x="123.97185"
             style="font-style:normal;font-variant:normal;font-weight:normal;font-stretch:normal;font-family:Helvetica;-inkscape-font-specification:'Helvetica Bold';stroke-linecap:butt;stroke-linejoin:round;stroke-miterlimit:100000"
             id="tspan14255"
             sodipodi:role="line">Excitatory connections</tspan></text>
      </g>
      <g
         style="stroke-linecap:butt;stroke-linejoin:round;stroke-miterlimit:100000"
         transform="translate(309.01915,-41.416214)"
         id="g14330">
        <path
           inkscape:connector-curvature="0"
           id="path14251"
           d="m 65.386316,538.12507 44.285714,0"
           style="fill:none;fill-rule:evenodd;stroke:#30a2da;stroke-width:5;stroke-linecap:butt;stroke-linejoin:miter;stroke-miterlimit:100;stroke-dasharray:none;stroke-opacity:1"
           sodipodi:nodetypes="cc" />
        <text
           xml:space="preserve"
           style="font-style:normal;font-weight:normal;font-size:27.87149048px;line-height:125%;font-family:sans-serif;letter-spacing:0px;word-spacing:0px;fill:#000000;fill-opacity:1;stroke:none;stroke-width:1px;stroke-linecap:butt;stroke-linejoin:miter;stroke-miterlimit:100000;stroke-opacity:1"
           x="123.61801"
           y="545.16779"
           id="text14257"
           sodipodi:linespacing="125%"><tspan
             sodipodi:role="line"
             id="tspan14259"
             style="font-style:normal;font-variant:normal;font-weight:normal;font-stretch:normal;font-family:Helvetica;-inkscape-font-specification:'Helvetica Bold';stroke-linecap:butt;stroke-linejoin:round;stroke-miterlimit:100000"
             x="123.61801"
             y="545.16779">Inhibitory connections</tspan></text>
      </g>
      <g
         style="stroke-linecap:butt;stroke-linejoin:round;stroke-miterlimit:100000"
         transform="translate(765.49254,-88.893424)"
         id="g14335">
        <path
           sodipodi:nodetypes="cc"
           style="fill:none;fill-rule:evenodd;stroke:#800080;stroke-width:5;stroke-linecap:butt;stroke-linejoin:miter;stroke-miterlimit:100;stroke-dasharray:none;stroke-opacity:1"
           d="m 65.386316,585.60226 44.285714,0"
           id="path14301"
           inkscape:connector-curvature="0" />
        <text
           sodipodi:linespacing="125%"
           id="text14303"
           y="595.60498"
           x="125.12862"
           style="font-style:normal;font-weight:normal;font-size:27.87149048px;line-height:125%;font-family:sans-serif;letter-spacing:0px;word-spacing:0px;fill:#000000;fill-opacity:1;stroke:none;stroke-width:1px;stroke-linecap:butt;stroke-linejoin:miter;stroke-miterlimit:100000;stroke-opacity:1"
           xml:space="preserve"><tspan
             y="595.60498"
             x="125.12862"
             style="font-style:normal;font-variant:normal;font-weight:normal;font-stretch:normal;font-family:Helvetica;-inkscape-font-specification:'Helvetica Bold';stroke-linecap:butt;stroke-linejoin:round;stroke-miterlimit:100000"
             id="tspan14305"
             sodipodi:role="line">Combined</tspan></text>
      </g>
    </g>
    <g
       style="stroke-linecap:butt;stroke-linejoin:round;stroke-miterlimit:100000"
       id="axes_1"
       transform="matrix(1.25,0,0,1.25,-131.9,170.2886)">
      <g
         style="stroke-linecap:butt;stroke-linejoin:round;stroke-miterlimit:100000"
         id="patch_2">
        <path
           inkscape:connector-curvature="0"
           d="m 66.24,213.26062 194.4,0 0,-194.399995 -194.4,0 0,194.399995 z"
           style="fill:none;stroke-linecap:butt;stroke-linejoin:round;stroke-miterlimit:100000"
           id="path14090" />
      </g>
      <g
         style="stroke-linecap:butt;stroke-linejoin:round;stroke-miterlimit:100000"
         id="LineCollection_1">
        <path
           inkscape:connector-curvature="0"
           clip-path="url(#pe548d638c2)"
           d="m 163.44,18.860625 6.16558,0.195744 6.14076,0.586445 6.0912,0.974784 6.01712,1.359198 5.91881,1.738138 5.79667,2.110081 5.65118,2.473526 5.48295,2.827012 5.29263,3.169114 5.08101,3.498455 4.84891,3.813709 4.5973,4.113607 4.32718,4.39694 4.03963,4.66257 3.73582,4.909423 3.41696,5.136509 3.08434,5.342912 2.73931,5.527801 2.38324,5.690431 2.01758,5.830148 1.6438,5.946389 1.26338,6.038685 0.8779,6.106664 0.48887,6.15006 0.0979,6.16869 -0.29352,6.16248 -0.68372,6.13144 -1.07119,6.07574 -1.45432,5.99556 -1.83161,5.89123 -2.20152,5.76319 -2.56256,5.61194 -2.91329,5.4381 -3.25229,5.24235 -3.57819,5.02549 -3.88968,4.78841 -4.18552,4.53204 -4.46448,4.25741 -4.72549,3.96566 -4.96746,3.65792 -5.18943,3.33546 -5.3905,2.99958 -5.56988,2.6516 -5.72681,2.29296 -5.86069,1.92508 -5.97097,1.54945 -6.05721,1.16758 -6.11906,0.781 -6.15627,0.39129 -6.16868,0 -6.15627,-0.39129 -6.11906,-0.781 -6.05721,-1.16758 -5.97097,-1.54945 -5.86069,-1.92508 -5.72681,-2.29296 -5.56988,-2.6516 -5.3905,-2.99958 -5.18943,-3.33546 -4.96746,-3.65792 -4.725486,-3.96566 -4.464488,-4.25741 -4.185512,-4.53204 -3.889682,-4.78841 -3.578189,-5.02549 -3.252289,-5.24235 -2.913293,-5.4381 -2.562565,-5.61194 -2.201519,-5.76319 -1.831609,-5.89123 -1.454323,-5.99556 -1.071181,-6.07574 -0.683726,-6.13144 -0.293518,-6.16248 0.09787,-6.16869 0.488868,-6.15006 0.877896,-6.106664 1.263388,-6.038685 1.643794,-5.946389 2.017579,-5.830148 2.383242,-5.690431 2.739308,-5.527801 3.084344,-5.342912 3.416959,-5.136509 3.735816,-4.909423 4.039631,-4.66257 4.327179,-4.39694 4.597306,-4.113607 4.84891,-3.813709 5.08101,-3.498455 5.29263,-3.169114 5.48295,-2.827012 5.65118,-2.473526 5.79667,-2.110081 5.91881,-1.738138 6.01712,-1.359198 6.0912,-0.974784 6.14076,-0.586445 6.16558,-0.195744"
           style="fill:none;stroke:#30a2da;stroke-width:4;stroke-linecap:butt;stroke-linejoin:round;stroke-miterlimit:100000"
           id="path14093" />
      </g>
      <g
         style="stroke-linecap:butt;stroke-linejoin:round;stroke-miterlimit:100000"
         id="LineCollection_2">
        <path
           inkscape:connector-curvature="0"
           clip-path="url(#pe548d638c2)"
           d="m 163.44,96.640204 1.23312,0.03915 1.22815,0.117289 1.21824,0.194957 1.20342,0.271839 1.18376,0.347628 1.15934,0.422016 1.13023,0.494706 1.09659,0.565402 1.05853,0.633823 1.0162,0.699686 0.96978,0.76275 0.91946,0.82272 0.86544,0.87938 0.80793,0.93252 0.74716,0.98188 0.68339,1.0273 0.61687,1.06859 0.54786,1.10556 0.47665,1.13808 0.40352,1.16603 0.32875,1.18928 0.25268,1.20774 0.17558,1.22133 0.0978,1.23001 0.0196,1.23374 -0.0587,1.2325 -0.13675,1.22629 -0.21424,1.21514 -0.29086,1.19911 -0.36632,1.17825 -0.44031,1.15264 -0.51251,1.12239 -0.58266,1.08762 -0.65046,1.04847 -0.71563,1.0051 -0.77794,0.95768 -0.8371,0.9064 -0.8929,0.85149 -0.9451,0.79313 -0.99349,0.73158 -1.03788,0.6671 -1.07811,0.59991 -1.11397,0.53032 -1.14536,0.45859 -1.17214,0.38502 -1.19419,0.30989 -1.21145,0.23351 -1.22381,0.15621 -1.23125,0.0782 -1.23374,0 -1.23125,-0.0782 -1.22381,-0.15621 -1.21145,-0.23351 -1.19419,-0.30989 -1.17214,-0.38502 -1.14536,-0.45859 -1.11398,-0.53032 -1.0781,-0.59991 -1.03788,-0.6671 -0.99349,-0.73158 -0.9451,-0.79313 -0.8929,-0.85149 -0.8371,-0.9064 -0.77794,-0.95768 -0.71564,-1.0051 -0.65045,-1.04847 -0.58266,-1.08762 -0.51252,-1.12239 -0.4403,-1.15264 -0.36632,-1.17825 -0.29087,-1.19911 -0.21423,-1.21514 -0.13675,-1.22629 -0.0587,-1.2325 0.0196,-1.23374 0.0978,-1.23001 0.17558,-1.22133 0.25267,-1.20774 0.32876,-1.18928 0.40352,-1.16603 0.47665,-1.13808 0.54786,-1.10556 0.61687,-1.06859 0.68339,-1.0273 0.74716,-0.98188 0.80793,-0.93252 0.86543,-0.87938 0.91947,-0.82272 0.96978,-0.76275 1.0162,-0.699686 1.05853,-0.633823 1.09658,-0.565402 1.13024,-0.494706 1.15934,-0.422016 1.18376,-0.347628 1.20342,-0.271839 1.21824,-0.194957 1.22815,-0.117289 1.23312,-0.03915"
           style="fill:none;stroke:#fc4f30;stroke-width:4;stroke-linecap:butt;stroke-linejoin:round;stroke-miterlimit:100000"
           id="path14096" />
      </g>
      <g
         style="stroke-linecap:butt;stroke-linejoin:round;stroke-miterlimit:100000"
         id="text_1">
        <!-- A -->
        <defs
           id="defs14099" />
        <g
           style="stroke-linecap:butt;stroke-linejoin:round;stroke-miterlimit:100000"
           transform="matrix(0.18,0,0,-0.18,14.4,28.077187)"
           id="g14102" />
      </g>
    </g>
    <text
       xml:space="preserve"
       style="font-style:normal;font-weight:normal;font-size:40px;line-height:125%;font-family:sans-serif;letter-spacing:0px;word-spacing:0px;fill:#000000;fill-opacity:1;stroke:none;stroke-width:1px;stroke-linecap:butt;stroke-linejoin:miter;stroke-miterlimit:100000;stroke-opacity:1"
       x="-127.71429"
       y="71.790771"
       id="text14228"
       sodipodi:linespacing="125%"><tspan
         sodipodi:role="line"
         id="tspan14230"
         style="font-style:normal;font-variant:normal;font-weight:bold;font-stretch:normal;font-family:Helvetica;-inkscape-font-specification:'Helvetica Bold';stroke-linecap:butt;stroke-linejoin:round;stroke-miterlimit:100000"
         x="-127.71429"
         y="71.790771">A</tspan></text>
    <text
       xml:space="preserve"
       style="font-style:normal;font-weight:normal;font-size:27.87149048px;line-height:125%;font-family:sans-serif;letter-spacing:0px;word-spacing:0px;fill:#000000;fill-opacity:1;stroke:none;stroke-width:1px;stroke-linecap:butt;stroke-linejoin:miter;stroke-miterlimit:100000;stroke-opacity:1"
       x="72.420456"
       y="117.81918"
       id="text14261"
       sodipodi:linespacing="125%"><tspan
         sodipodi:role="line"
         id="tspan14263"
         style="font-style:normal;font-variant:normal;font-weight:normal;font-stretch:normal;font-family:Helvetica;-inkscape-font-specification:'Helvetica Bold';text-align:center;text-anchor:middle;stroke-linecap:butt;stroke-linejoin:round;stroke-miterlimit:100000"
         x="72.420456"
         y="117.81918">2D Spatial profile</tspan><tspan
         sodipodi:role="line"
         style="font-style:normal;font-variant:normal;font-weight:normal;font-stretch:normal;font-family:Helvetica;-inkscape-font-specification:'Helvetica Bold';text-align:center;text-anchor:middle;stroke-linecap:butt;stroke-linejoin:round;stroke-miterlimit:100000"
         x="72.420464"
         y="152.65854"
         id="tspan14340">(one standard deviation)</tspan></text>
    <path
       sodipodi:nodetypes="cc"
       inkscape:connector-curvature="0"
       id="path14555"
       d="m 72.400062,461.14579 0,-291.51268"
       style="fill:none;fill-rule:evenodd;stroke:#000000;stroke-width:4;stroke-linecap:butt;stroke-linejoin:miter;stroke-miterlimit:100;stroke-dasharray:4, 4;stroke-dashoffset:0;stroke-opacity:1" />
    <g
       id="patch_4"
       style="stroke-linecap:butt;stroke-linejoin:round;stroke-miterlimit:100000"
       transform="matrix(1.25,0,0,1.25,8.1000095,170.2886)">
      <path
         id="path14126"
         style="fill:none;stroke-linecap:butt;stroke-linejoin:round;stroke-miterlimit:100000"
         d="m 649.44,213.26062 194.4,0 0,-194.399995 -194.4,0 0,194.399995 z"
         inkscape:connector-curvature="0" />
    </g>
    <path
       inkscape:connector-curvature="0"
       clip-path="url(#pa3f5f5f753)"
       d="m 819.89996,401.70342 2.45455,0.45842 2.45454,0.48606 2.45455,0.51429 2.45454,0.54305 2.45455,0.5722 2.45455,0.60162 2.45455,0.63123 2.45453,0.66082 2.45455,0.69031 2.45454,0.7195 2.45455,0.74823 2.45455,0.77634 2.45454,0.80361 2.45455,0.82989 2.45454,0.85497 2.45455,0.87866 2.45455,0.90075 2.45453,0.92104 2.45455,0.93933 2.45455,0.95543 2.45454,0.96914 2.45455,0.98025 2.45455,0.98859 2.45454,0.99391 2.45455,0.99591 2.45455,0.99408 2.45454,0.98749 2.45455,0.97425 2.45453,0.95063 2.45455,0.9095 2.45455,0.8378 2.45454,0.71289 2.45455,0.49808 2.45455,0.13759 2.45454,-0.44684 2.45455,-1.35522 2.45455,-2.70091 2.45454,-4.59087 2.45455,-7.09305 2.45453,-10.19367 2.45455,-13.75268 2.45455,-17.47193 2.45454,-20.89296 2.45455,-23.43939 2.45455,-24.50761 2.45454,-23.59434 2.45455,-20.43194 2.45454,-15.09279 2.45455,-8.02514 2.45455,0 2.45455,8.02514 2.45453,15.09279 2.45455,20.43194 2.45454,23.59434 2.45455,24.50761 2.45455,23.43939 2.45454,20.89296 2.45455,17.47193 2.45454,13.75268 2.45455,10.19367 2.45455,7.09305 2.45455,4.59087 2.45453,2.70091 2.45455,1.35522 2.45454,0.44684 2.45455,-0.13759 2.45455,-0.49808 2.45454,-0.71289 2.45455,-0.8378 2.45454,-0.9095 2.45455,-0.95063 2.45455,-0.97425 2.45453,-0.98749 2.45453,-0.99408 2.4546,-0.99591 2.4545,-0.99391 2.4546,-0.98859 2.4545,-0.98025 2.4545,-0.96914 2.4546,-0.95543 2.4545,-0.93933 2.4546,-0.92104 2.4545,-0.90075 2.4546,-0.87866 2.4545,-0.85497 2.4546,-0.82989 2.4545,-0.80361 2.4546,-0.77634 2.4545,-0.74823 2.4545,-0.7195 2.4546,-0.69031 2.4545,-0.66082 2.4546,-0.63123 2.4545,-0.60162 2.4546,-0.5722 2.4545,-0.54305 2.4546,-0.51429 2.4545,-0.48606 2.4546,-0.45842"
       style="fill:none;stroke:#800080;stroke-width:5;stroke-linecap:butt;stroke-linejoin:round;stroke-miterlimit:100;stroke-dasharray:15, 5;stroke-dashoffset:0"
       id="path14129" />
    <text
       xml:space="preserve"
       style="font-style:normal;font-weight:normal;font-size:40px;line-height:125%;font-family:sans-serif;letter-spacing:0px;word-spacing:0px;fill:#000000;fill-opacity:1;stroke:none;stroke-width:1px;stroke-linecap:butt;stroke-linejoin:miter;stroke-miterlimit:100000;stroke-opacity:1"
       x="747.74054"
       y="70.98999"
       id="text14236"
       sodipodi:linespacing="125%"><tspan
         sodipodi:role="line"
         id="tspan14238"
         style="font-style:normal;font-variant:normal;font-weight:bold;font-stretch:normal;font-family:Helvetica;-inkscape-font-specification:'Helvetica Bold';stroke-linecap:butt;stroke-linejoin:round;stroke-miterlimit:100000"
         x="747.74054"
         y="70.98999">C</tspan></text>
    <path
       style="fill:none;fill-rule:evenodd;stroke:#000000;stroke-width:4;stroke-linecap:butt;stroke-linejoin:miter;stroke-miterlimit:100;stroke-dasharray:4, 4;stroke-dashoffset:0;stroke-opacity:1"
       d="m 811.42859,395.50507 254.28571,0"
       id="path14281"
       inkscape:connector-curvature="0" />
    <path
       inkscape:connector-curvature="0"
       id="path14283"
       d="m 821.14287,438.07649 0,-254.28571"
       style="fill:none;fill-rule:evenodd;stroke:#000000;stroke-width:4;stroke-linecap:butt;stroke-linejoin:miter;stroke-miterlimit:100000;stroke-opacity:1" />
    <text
       sodipodi:linespacing="125%"
       id="text14285"
       y="405.9671"
       x="790.20544"
       style="font-style:normal;font-weight:normal;font-size:27.87149048px;line-height:125%;font-family:sans-serif;letter-spacing:0px;word-spacing:0px;fill:#000000;fill-opacity:1;stroke:none;stroke-width:1px;stroke-linecap:butt;stroke-linejoin:miter;stroke-miterlimit:100000;stroke-opacity:1"
       xml:space="preserve"><tspan
         y="405.9671"
         x="790.20544"
         style="font-style:normal;font-variant:normal;font-weight:normal;font-stretch:normal;font-family:Helvetica;-inkscape-font-specification:'Helvetica Bold';stroke-linecap:butt;stroke-linejoin:round;stroke-miterlimit:100000"
         id="tspan14287"
         sodipodi:role="line">0</tspan></text>
    <text
       transform="matrix(0,-1,1,0,0,0)"
       sodipodi:linespacing="125%"
       id="text14289"
       y="804.39716"
       x="-346.22919"
       style="font-style:normal;font-weight:normal;font-size:27.87149048px;line-height:125%;font-family:sans-serif;letter-spacing:0px;word-spacing:0px;fill:#000000;fill-opacity:1;stroke:none;stroke-width:1px;stroke-linecap:butt;stroke-linejoin:miter;stroke-miterlimit:100000;stroke-opacity:1"
       xml:space="preserve"><tspan
         y="804.39716"
         x="-346.22919"
         style="font-style:normal;font-variant:normal;font-weight:normal;font-stretch:normal;font-family:Helvetica;-inkscape-font-specification:'Helvetica Bold';stroke-linecap:butt;stroke-linejoin:round;stroke-miterlimit:100000"
         id="tspan14291"
         sodipodi:role="line">Strength</tspan></text>
    <path
       inkscape:connector-curvature="0"
       id="path14297"
       d="m 823.14287,436.05889 -10.2801,0"
       style="fill:none;fill-rule:evenodd;stroke:#000000;stroke-width:4.0352006;stroke-linecap:butt;stroke-linejoin:miter;stroke-miterlimit:100000;stroke-opacity:1" />
    <path
       style="fill:none;fill-rule:evenodd;stroke:#000000;stroke-width:4.0352006;stroke-linecap:butt;stroke-linejoin:miter;stroke-miterlimit:100000;stroke-opacity:1"
       d="m 823.14287,185.80838 -10.2801,0"
       id="path14299"
       inkscape:connector-curvature="0" />
    <text
       xml:space="preserve"
       style="font-style:normal;font-weight:normal;font-size:27.87149048px;line-height:125%;font-family:sans-serif;letter-spacing:0px;word-spacing:0px;fill:#000000;fill-opacity:1;stroke:none;stroke-width:1px;stroke-linecap:butt;stroke-linejoin:miter;stroke-miterlimit:100000;stroke-opacity:1"
       x="823.10266"
       y="117.81918"
       id="text14313"
       sodipodi:linespacing="125%"><tspan
         sodipodi:role="line"
         id="tspan14315"
         style="font-style:normal;font-variant:normal;font-weight:normal;font-stretch:normal;font-family:Helvetica;-inkscape-font-specification:'Helvetica Bold';stroke-linecap:butt;stroke-linejoin:round;stroke-miterlimit:100000"
         x="823.10266"
         y="117.81918">Mexican-hat profile</tspan></text>
    <path
       style="fill:none;fill-rule:evenodd;stroke:#000000;stroke-width:4.0352006;stroke-linecap:butt;stroke-linejoin:miter;stroke-miterlimit:100000;stroke-opacity:1"
       d="m 823.14287,395.50507 -10.2801,0"
       id="path14321"
       inkscape:connector-curvature="0" />
    <path
       inkscape:connector-curvature="0"
       id="path14271"
       d="m 395.18973,395.50507 254.28571,0"
       style="fill:none;fill-rule:evenodd;stroke:#000000;stroke-width:4;stroke-linecap:butt;stroke-linejoin:miter;stroke-miterlimit:100;stroke-dasharray:4, 4;stroke-dashoffset:0;stroke-opacity:1" />
    <g
       style="stroke-linecap:butt;stroke-linejoin:round;stroke-miterlimit:100000"
       id="axes_2"
       transform="matrix(1.25,0,0,1.25,-41.118339,170.2886)">
      <g
         style="stroke-linecap:butt;stroke-linejoin:round;stroke-miterlimit:100000"
         id="patch_3">
        <path
           inkscape:connector-curvature="0"
           d="m 357.84,213.26062 194.4,0 0,-194.399995 -194.4,0 0,194.399995 z"
           style="fill:none;stroke-linecap:butt;stroke-linejoin:round;stroke-miterlimit:100000"
           id="path14108" />
      </g>
      <g
         style="stroke-linecap:butt;stroke-linejoin:round;stroke-miterlimit:100000"
         id="line2d_1">
        <path
           inkscape:connector-curvature="0"
           clip-path="url(#p1512fb591c)"
           d="m 357.84,180.72818 1.96364,0 1.96363,0 1.96364,0 1.96363,0 1.96364,0 1.96364,0 1.96364,0 1.96363,0 1.96364,0 1.96363,0 1.96364,0 1.96364,0 1.96363,0 1.96364,0 1.96364,0 1.96363,0 1.96364,0 1.96363,0 1.96364,0 1.96364,-1e-5 1.96363,0 1.96364,-3e-5 1.96364,-6e-5 1.96363,-1.8e-4 1.96364,-5e-4 1.96363,-10e-4 1.96364,-0.003 1.96364,-0.008 1.96364,-0.0177 1.96363,-0.0387 1.96364,-0.0813 1.96363,-0.16352 1.96364,-0.31469 1.96364,-0.57946 1.96363,-1.02046 1.96364,-1.71778 1.96364,-2.7622 1.96363,-4.23934 1.96364,-6.2037 1.96363,-8.64439 1.96364,-11.44956 1.96364,-14.38079 1.96363,-17.07155 1.96364,-19.06094 1.96364,-19.866276 1.96363,-19.085149 1.96364,-16.503713 1.96363,-12.180103 1.96364,-6.473174 1.96364,0 1.96363,6.473174 1.96364,12.180103 1.96364,16.503713 1.96363,19.085149 1.96364,19.866276 1.96364,19.06094 1.96363,17.07155 1.96364,14.38079 1.96363,11.44956 1.96364,8.64439 1.96364,6.2037 1.96364,4.23934 1.96363,2.7622 1.96364,1.71778 1.96363,1.02046 1.96364,0.57946 1.96364,0.31469 1.96363,0.16352 1.96364,0.0813 1.96364,0.0387 1.96363,0.0177 1.96364,0.008 1.96363,0.003 1.96364,10e-4 1.96364,5e-4 1.96363,1.8e-4 1.96364,6e-5 1.96364,3e-5 1.96363,0 1.96364,1e-5 1.96363,0 1.96364,0 1.96364,0 1.96363,0 1.96364,0 1.96364,0 1.96363,0 1.96364,0 1.96364,0 1.96363,0 1.96364,0 1.96364,0 1.96363,0 1.96364,0 1.96363,0 1.96364,0 1.96364,0 1.96363,0 1.96364,0"
           style="fill:none;stroke:#fc4f30;stroke-width:4;stroke-linecap:butt;stroke-linejoin:round;stroke-miterlimit:100000"
           id="path14111" />
      </g>
      <g
         style="stroke-linecap:butt;stroke-linejoin:round;stroke-miterlimit:100000"
         id="line2d_2">
        <path
           inkscape:connector-curvature="0"
           clip-path="url(#p1512fb591c)"
           d="m 357.84,185.13186 1.96364,0.36673 1.96363,0.38885 1.96364,0.41143 1.96363,0.43444 1.96364,0.45776 1.96364,0.4813 1.96364,0.50498 1.96363,0.52866 1.96364,0.55225 1.96363,0.5756 1.96364,0.59858 1.96364,0.62107 1.96363,0.64289 1.96364,0.66391 1.96364,0.68398 1.96363,0.70293 1.96364,0.7206 1.96363,0.73683 1.96364,0.75147 1.96364,0.76434 1.96363,0.77532 1.96364,0.78422 1.96364,0.79094 1.96363,0.79531 1.96364,0.79723 1.96363,0.79656 1.96364,0.79322 1.96364,0.78712 1.96364,0.77817 1.96363,0.76634 1.96364,0.75156 1.96363,0.73384 1.96364,0.71315 1.96364,0.68952 1.96363,0.663 1.96364,0.63361 1.96364,0.60146 1.96363,0.56664 1.96364,0.52927 1.96363,0.48946 1.96364,0.4474 1.96364,0.40325 1.96363,0.35719 1.96364,0.30943 1.96364,0.26018 1.96363,0.20968 1.96364,0.15816 1.96363,0.10587 1.96364,0.0531 1.96364,0 1.96363,-0.0531 1.96364,-0.10587 1.96364,-0.15816 1.96363,-0.20968 1.96364,-0.26018 1.96364,-0.30943 1.96363,-0.35719 1.96364,-0.40325 1.96363,-0.4474 1.96364,-0.48946 1.96364,-0.52927 1.96364,-0.56664 1.96363,-0.60146 1.96364,-0.63361 1.96363,-0.663 1.96364,-0.68952 1.96364,-0.71315 1.96363,-0.73384 1.96364,-0.75156 1.96364,-0.76634 1.96363,-0.77817 1.96364,-0.78712 1.96363,-0.79322 1.96364,-0.79656 1.96364,-0.79723 1.96363,-0.79531 1.96364,-0.79094 1.96364,-0.78422 1.96363,-0.77532 1.96364,-0.76434 1.96363,-0.75147 1.96364,-0.73683 1.96364,-0.7206 1.96363,-0.70293 1.96364,-0.68398 1.96364,-0.66391 1.96363,-0.64289 1.96364,-0.62107 1.96364,-0.59858 1.96363,-0.5756 1.96364,-0.55225 1.96364,-0.52866 1.96363,-0.50498 1.96364,-0.4813 1.96363,-0.45776 1.96364,-0.43444 1.96364,-0.41143 1.96363,-0.38885 1.96364,-0.36673"
           style="fill:none;stroke:#30a2da;stroke-width:4;stroke-linecap:butt;stroke-linejoin:round;stroke-miterlimit:100000"
           id="path14114" />
      </g>
      <g
         style="stroke-linecap:butt;stroke-linejoin:round;stroke-miterlimit:100000"
         id="text_2">
        <!-- B -->
        <defs
           id="defs14117" />
        <g
           style="stroke-linecap:butt;stroke-linejoin:round;stroke-miterlimit:100000"
           transform="matrix(0.18,0,0,-0.18,306,28.077187)"
           id="g14120" />
      </g>
    </g>
    <text
       sodipodi:linespacing="125%"
       id="text14232"
       y="71.790771"
       x="332.00946"
       style="font-style:normal;font-weight:normal;font-size:40px;line-height:125%;font-family:sans-serif;letter-spacing:0px;word-spacing:0px;fill:#000000;fill-opacity:1;stroke:none;stroke-width:1px;stroke-linecap:butt;stroke-linejoin:miter;stroke-miterlimit:100000;stroke-opacity:1"
       xml:space="preserve"><tspan
         y="71.790771"
         x="332.00946"
         style="font-style:normal;font-variant:normal;font-weight:bold;font-stretch:normal;font-family:Helvetica;-inkscape-font-specification:'Helvetica Bold';stroke-linecap:butt;stroke-linejoin:round;stroke-miterlimit:100000"
         id="tspan14234"
         sodipodi:role="line">B</tspan></text>
    <path
       style="fill:none;fill-rule:evenodd;stroke:#000000;stroke-width:4;stroke-linecap:butt;stroke-linejoin:miter;stroke-miterlimit:100000;stroke-opacity:1"
       d="m 404.90401,438.07649 0,-254.28571"
       id="path14269"
       inkscape:connector-curvature="0" />
    <text
       xml:space="preserve"
       style="font-style:normal;font-weight:normal;font-size:27.87149048px;line-height:125%;font-family:sans-serif;letter-spacing:0px;word-spacing:0px;fill:#000000;fill-opacity:1;stroke:none;stroke-width:1px;stroke-linecap:butt;stroke-linejoin:miter;stroke-miterlimit:100000;stroke-opacity:1"
       x="373.96655"
       y="405.9671"
       id="text14273"
       sodipodi:linespacing="125%"><tspan
         sodipodi:role="line"
         id="tspan14275"
         style="font-style:normal;font-variant:normal;font-weight:normal;font-stretch:normal;font-family:Helvetica;-inkscape-font-specification:'Helvetica Bold';stroke-linecap:butt;stroke-linejoin:round;stroke-miterlimit:100000"
         x="373.96655"
         y="405.9671">0</tspan></text>
    <text
       xml:space="preserve"
       style="font-style:normal;font-weight:normal;font-size:27.87149048px;line-height:125%;font-family:sans-serif;letter-spacing:0px;word-spacing:0px;fill:#000000;fill-opacity:1;stroke:none;stroke-width:1px;stroke-linecap:butt;stroke-linejoin:miter;stroke-miterlimit:100000;stroke-opacity:1"
       x="-346.22919"
       y="388.15829"
       id="text14277"
       sodipodi:linespacing="125%"
       transform="matrix(0,-1,1,0,0,0)"><tspan
         sodipodi:role="line"
         id="tspan14279"
         style="font-style:normal;font-variant:normal;font-weight:normal;font-stretch:normal;font-family:Helvetica;-inkscape-font-specification:'Helvetica Bold';stroke-linecap:butt;stroke-linejoin:round;stroke-miterlimit:100000"
         x="-346.22919"
         y="388.15829">Strength</tspan></text>
    <path
       style="fill:none;fill-rule:evenodd;stroke:#000000;stroke-width:4.0352006;stroke-linecap:butt;stroke-linejoin:miter;stroke-miterlimit:100000;stroke-opacity:1"
       d="m 406.90401,436.05889 -10.2801,0"
       id="path14293"
       inkscape:connector-curvature="0" />
    <path
       inkscape:connector-curvature="0"
       id="path14295"
       d="m 406.90401,185.80838 -10.2801,0"
       style="fill:none;fill-rule:evenodd;stroke:#000000;stroke-width:4.0352006;stroke-linecap:butt;stroke-linejoin:miter;stroke-miterlimit:100000;stroke-opacity:1" />
    <text
       sodipodi:linespacing="125%"
       id="text14309"
       y="117.81918"
       x="419.67282"
       style="font-style:normal;font-weight:normal;font-size:27.87149048px;line-height:125%;font-family:sans-serif;letter-spacing:0px;word-spacing:0px;fill:#000000;fill-opacity:1;stroke:none;stroke-width:1px;stroke-linecap:butt;stroke-linejoin:miter;stroke-miterlimit:100000;stroke-opacity:1"
       xml:space="preserve"><tspan
         y="117.81918"
         x="419.67282"
         style="font-style:normal;font-variant:normal;font-weight:normal;font-stretch:normal;font-family:Helvetica;-inkscape-font-specification:'Helvetica Bold';stroke-linecap:butt;stroke-linejoin:round;stroke-miterlimit:100000"
         id="tspan14311"
         sodipodi:role="line">Gaussian profiles</tspan></text>
    <path
       inkscape:connector-curvature="0"
       id="path14323"
       d="m 406.90401,395.50507 -10.2801,0"
       style="fill:none;fill-rule:evenodd;stroke:#000000;stroke-width:4.0352006;stroke-linecap:butt;stroke-linejoin:miter;stroke-miterlimit:100000;stroke-opacity:1" />
    <path
       style="fill:none;fill-rule:evenodd;stroke:#000000;stroke-width:4;stroke-linecap:butt;stroke-linejoin:miter;stroke-miterlimit:100;stroke-dasharray:4, 4;stroke-dashoffset:0;stroke-opacity:1"
       d="m 218.1564,315.38945 -291.512679,0"
       id="path14613"
       inkscape:connector-curvature="0"
       sodipodi:nodetypes="cc" />
  </g>
</svg>
